G75*
%MOIN*%
%OFA0B0*%
%FSLAX25Y25*%
%IPPOS*%
%LPD*%
%AMOC8*
5,1,8,0,0,1.08239X$1,22.5*
%
%ADD10C,0.04000*%
%ADD11OC8,0.07000*%
%ADD12OC8,0.07100*%
%ADD13C,0.07100*%
%ADD14OC8,0.13200*%
%ADD15C,0.13200*%
%ADD16C,0.07000*%
%ADD17C,0.07800*%
%ADD18C,0.09300*%
%ADD19C,0.09000*%
%ADD20C,0.13398*%
D10*
X0090200Y0167200D02*
X0058200Y0199200D01*
X0058200Y0209200D01*
X0101200Y0252200D01*
X0101200Y0270200D01*
X0108200Y0277200D01*
X0236200Y0277200D01*
X0243200Y0270200D01*
X0243200Y0238200D01*
X0207200Y0202200D01*
X0096200Y0167200D02*
X0090200Y0167200D01*
D11*
X0097200Y0167200D03*
X0097200Y0117200D03*
X0097200Y0102200D03*
X0112200Y0092200D03*
X0127200Y0082200D03*
X0112200Y0072200D03*
X0097200Y0082200D03*
X0142200Y0062200D03*
X0142200Y0042200D03*
X0177200Y0082200D03*
X0192200Y0082200D03*
X0192200Y0102200D03*
X0242200Y0082200D03*
X0257200Y0082200D03*
X0262200Y0097200D03*
X0277200Y0112200D03*
X0262200Y0117200D03*
X0262200Y0132200D03*
X0277200Y0162200D03*
X0262200Y0182200D03*
X0177200Y0227200D03*
X0167200Y0207200D03*
X0152200Y0207200D03*
X0127200Y0227200D03*
X0152200Y0157200D03*
X0167200Y0157200D03*
X0142200Y0102200D03*
X0047200Y0102200D03*
X0047200Y0082200D03*
X0257200Y0062200D03*
D12*
X0172200Y0045200D03*
X0074200Y0137200D03*
D13*
X0060200Y0137200D03*
X0172200Y0059200D03*
D14*
X0237200Y0132200D03*
X0237200Y0202200D03*
X0057200Y0202200D03*
D15*
X0087200Y0202200D03*
X0207200Y0202200D03*
X0207200Y0132200D03*
D16*
X0132200Y0125300D02*
X0132200Y0119100D01*
X0122200Y0119100D02*
X0122200Y0125300D01*
X0112200Y0125300D02*
X0112200Y0119100D01*
D17*
X0123700Y0158200D02*
X0130700Y0158200D01*
X0130700Y0167200D02*
X0123700Y0167200D01*
X0123700Y0176200D02*
X0130700Y0176200D01*
D18*
X0123700Y0255450D02*
X0123700Y0263950D01*
X0102200Y0263950D02*
X0102200Y0255450D01*
X0080700Y0255450D02*
X0080700Y0263950D01*
X0200700Y0263950D02*
X0200700Y0255450D01*
X0222200Y0255450D02*
X0222200Y0263950D01*
X0243700Y0263950D02*
X0243700Y0255450D01*
D19*
X0273100Y0227100D02*
X0281300Y0227100D01*
X0281300Y0207300D02*
X0273100Y0207300D01*
X0237100Y0051300D02*
X0237100Y0043100D01*
X0217300Y0043100D02*
X0217300Y0051300D01*
X0107100Y0051300D02*
X0107100Y0043100D01*
X0087300Y0043100D02*
X0087300Y0051300D01*
D20*
X0047200Y0042200D03*
X0277200Y0042200D03*
X0277200Y0274200D03*
X0047200Y0274200D03*
M02*
