G75*
%MOIN*%
%OFA0B0*%
%FSLAX25Y25*%
%IPPOS*%
%LPD*%
%AMOC8*
5,1,8,0,0,1.08239X$1,22.5*
%
%ADD10C,0.00000*%
D10*
X0027200Y0040200D02*
X0027200Y0274901D01*
X0027205Y0275336D01*
X0027221Y0275771D01*
X0027247Y0276205D01*
X0027284Y0276638D01*
X0027331Y0277071D01*
X0027389Y0277502D01*
X0027457Y0277931D01*
X0027535Y0278359D01*
X0027624Y0278785D01*
X0027723Y0279209D01*
X0027832Y0279630D01*
X0027952Y0280048D01*
X0028081Y0280463D01*
X0028220Y0280875D01*
X0028370Y0281284D01*
X0028529Y0281689D01*
X0028698Y0282090D01*
X0028876Y0282486D01*
X0029064Y0282878D01*
X0029262Y0283266D01*
X0029469Y0283649D01*
X0029685Y0284026D01*
X0029910Y0284399D01*
X0030144Y0284765D01*
X0030386Y0285126D01*
X0030638Y0285481D01*
X0030898Y0285830D01*
X0031166Y0286172D01*
X0031442Y0286508D01*
X0031727Y0286837D01*
X0032019Y0287159D01*
X0032319Y0287474D01*
X0032627Y0287782D01*
X0032942Y0288082D01*
X0033264Y0288374D01*
X0033593Y0288659D01*
X0033929Y0288935D01*
X0034271Y0289203D01*
X0034620Y0289463D01*
X0034975Y0289715D01*
X0035336Y0289957D01*
X0035702Y0290191D01*
X0036075Y0290416D01*
X0036452Y0290632D01*
X0036835Y0290839D01*
X0037223Y0291037D01*
X0037615Y0291225D01*
X0038011Y0291403D01*
X0038412Y0291572D01*
X0038817Y0291731D01*
X0039226Y0291881D01*
X0039638Y0292020D01*
X0040053Y0292149D01*
X0040471Y0292269D01*
X0040892Y0292378D01*
X0041316Y0292477D01*
X0041742Y0292566D01*
X0042170Y0292644D01*
X0042599Y0292712D01*
X0043030Y0292770D01*
X0043463Y0292817D01*
X0043896Y0292854D01*
X0044330Y0292880D01*
X0044765Y0292896D01*
X0045200Y0292901D01*
X0279121Y0292901D01*
X0279556Y0292896D01*
X0279991Y0292880D01*
X0280425Y0292854D01*
X0280858Y0292817D01*
X0281291Y0292770D01*
X0281722Y0292712D01*
X0282151Y0292644D01*
X0282579Y0292566D01*
X0283005Y0292477D01*
X0283429Y0292378D01*
X0283850Y0292269D01*
X0284268Y0292149D01*
X0284683Y0292020D01*
X0285095Y0291881D01*
X0285504Y0291731D01*
X0285909Y0291572D01*
X0286310Y0291403D01*
X0286706Y0291225D01*
X0287098Y0291037D01*
X0287486Y0290839D01*
X0287869Y0290632D01*
X0288246Y0290416D01*
X0288619Y0290191D01*
X0288985Y0289957D01*
X0289346Y0289715D01*
X0289701Y0289463D01*
X0290050Y0289203D01*
X0290392Y0288935D01*
X0290728Y0288659D01*
X0291057Y0288374D01*
X0291379Y0288082D01*
X0291694Y0287782D01*
X0292002Y0287474D01*
X0292302Y0287159D01*
X0292594Y0286837D01*
X0292879Y0286508D01*
X0293155Y0286172D01*
X0293423Y0285830D01*
X0293683Y0285481D01*
X0293935Y0285126D01*
X0294177Y0284765D01*
X0294411Y0284399D01*
X0294636Y0284026D01*
X0294852Y0283649D01*
X0295059Y0283266D01*
X0295257Y0282878D01*
X0295445Y0282486D01*
X0295623Y0282090D01*
X0295792Y0281689D01*
X0295951Y0281284D01*
X0296101Y0280875D01*
X0296240Y0280463D01*
X0296369Y0280048D01*
X0296489Y0279630D01*
X0296598Y0279209D01*
X0296697Y0278785D01*
X0296786Y0278359D01*
X0296864Y0277931D01*
X0296932Y0277502D01*
X0296990Y0277071D01*
X0297037Y0276638D01*
X0297074Y0276205D01*
X0297100Y0275771D01*
X0297116Y0275336D01*
X0297121Y0274901D01*
X0297121Y0040200D01*
X0297116Y0039765D01*
X0297100Y0039330D01*
X0297074Y0038896D01*
X0297037Y0038463D01*
X0296990Y0038030D01*
X0296932Y0037599D01*
X0296864Y0037170D01*
X0296786Y0036742D01*
X0296697Y0036316D01*
X0296598Y0035892D01*
X0296489Y0035471D01*
X0296369Y0035053D01*
X0296240Y0034638D01*
X0296101Y0034226D01*
X0295951Y0033817D01*
X0295792Y0033412D01*
X0295623Y0033011D01*
X0295445Y0032615D01*
X0295257Y0032223D01*
X0295059Y0031835D01*
X0294852Y0031452D01*
X0294636Y0031075D01*
X0294411Y0030702D01*
X0294177Y0030336D01*
X0293935Y0029975D01*
X0293683Y0029620D01*
X0293423Y0029271D01*
X0293155Y0028929D01*
X0292879Y0028593D01*
X0292594Y0028264D01*
X0292302Y0027942D01*
X0292002Y0027627D01*
X0291694Y0027319D01*
X0291379Y0027019D01*
X0291057Y0026727D01*
X0290728Y0026442D01*
X0290392Y0026166D01*
X0290050Y0025898D01*
X0289701Y0025638D01*
X0289346Y0025386D01*
X0288985Y0025144D01*
X0288619Y0024910D01*
X0288246Y0024685D01*
X0287869Y0024469D01*
X0287486Y0024262D01*
X0287098Y0024064D01*
X0286706Y0023876D01*
X0286310Y0023698D01*
X0285909Y0023529D01*
X0285504Y0023370D01*
X0285095Y0023220D01*
X0284683Y0023081D01*
X0284268Y0022952D01*
X0283850Y0022832D01*
X0283429Y0022723D01*
X0283005Y0022624D01*
X0282579Y0022535D01*
X0282151Y0022457D01*
X0281722Y0022389D01*
X0281291Y0022331D01*
X0280858Y0022284D01*
X0280425Y0022247D01*
X0279991Y0022221D01*
X0279556Y0022205D01*
X0279121Y0022200D01*
X0045200Y0022200D01*
X0044765Y0022205D01*
X0044330Y0022221D01*
X0043896Y0022247D01*
X0043463Y0022284D01*
X0043030Y0022331D01*
X0042599Y0022389D01*
X0042170Y0022457D01*
X0041742Y0022535D01*
X0041316Y0022624D01*
X0040892Y0022723D01*
X0040471Y0022832D01*
X0040053Y0022952D01*
X0039638Y0023081D01*
X0039226Y0023220D01*
X0038817Y0023370D01*
X0038412Y0023529D01*
X0038011Y0023698D01*
X0037615Y0023876D01*
X0037223Y0024064D01*
X0036835Y0024262D01*
X0036452Y0024469D01*
X0036075Y0024685D01*
X0035702Y0024910D01*
X0035336Y0025144D01*
X0034975Y0025386D01*
X0034620Y0025638D01*
X0034271Y0025898D01*
X0033929Y0026166D01*
X0033593Y0026442D01*
X0033264Y0026727D01*
X0032942Y0027019D01*
X0032627Y0027319D01*
X0032319Y0027627D01*
X0032019Y0027942D01*
X0031727Y0028264D01*
X0031442Y0028593D01*
X0031166Y0028929D01*
X0030898Y0029271D01*
X0030638Y0029620D01*
X0030386Y0029975D01*
X0030144Y0030336D01*
X0029910Y0030702D01*
X0029685Y0031075D01*
X0029469Y0031452D01*
X0029262Y0031835D01*
X0029064Y0032223D01*
X0028876Y0032615D01*
X0028698Y0033011D01*
X0028529Y0033412D01*
X0028370Y0033817D01*
X0028220Y0034226D01*
X0028081Y0034638D01*
X0027952Y0035053D01*
X0027832Y0035471D01*
X0027723Y0035892D01*
X0027624Y0036316D01*
X0027535Y0036742D01*
X0027457Y0037170D01*
X0027389Y0037599D01*
X0027331Y0038030D01*
X0027284Y0038463D01*
X0027247Y0038896D01*
X0027221Y0039330D01*
X0027205Y0039765D01*
X0027200Y0040200D01*
X0040901Y0042200D02*
X0040903Y0042358D01*
X0040909Y0042516D01*
X0040919Y0042674D01*
X0040933Y0042832D01*
X0040951Y0042989D01*
X0040972Y0043146D01*
X0040998Y0043302D01*
X0041028Y0043458D01*
X0041061Y0043613D01*
X0041099Y0043766D01*
X0041140Y0043919D01*
X0041185Y0044071D01*
X0041234Y0044222D01*
X0041287Y0044371D01*
X0041343Y0044519D01*
X0041403Y0044665D01*
X0041467Y0044810D01*
X0041535Y0044953D01*
X0041606Y0045095D01*
X0041680Y0045235D01*
X0041758Y0045372D01*
X0041840Y0045508D01*
X0041924Y0045642D01*
X0042013Y0045773D01*
X0042104Y0045902D01*
X0042199Y0046029D01*
X0042296Y0046154D01*
X0042397Y0046276D01*
X0042501Y0046395D01*
X0042608Y0046512D01*
X0042718Y0046626D01*
X0042831Y0046737D01*
X0042946Y0046846D01*
X0043064Y0046951D01*
X0043185Y0047053D01*
X0043308Y0047153D01*
X0043434Y0047249D01*
X0043562Y0047342D01*
X0043692Y0047432D01*
X0043825Y0047518D01*
X0043960Y0047602D01*
X0044096Y0047681D01*
X0044235Y0047758D01*
X0044376Y0047830D01*
X0044518Y0047900D01*
X0044662Y0047965D01*
X0044808Y0048027D01*
X0044955Y0048085D01*
X0045104Y0048140D01*
X0045254Y0048191D01*
X0045405Y0048238D01*
X0045557Y0048281D01*
X0045710Y0048320D01*
X0045865Y0048356D01*
X0046020Y0048387D01*
X0046176Y0048415D01*
X0046332Y0048439D01*
X0046489Y0048459D01*
X0046647Y0048475D01*
X0046804Y0048487D01*
X0046963Y0048495D01*
X0047121Y0048499D01*
X0047279Y0048499D01*
X0047437Y0048495D01*
X0047596Y0048487D01*
X0047753Y0048475D01*
X0047911Y0048459D01*
X0048068Y0048439D01*
X0048224Y0048415D01*
X0048380Y0048387D01*
X0048535Y0048356D01*
X0048690Y0048320D01*
X0048843Y0048281D01*
X0048995Y0048238D01*
X0049146Y0048191D01*
X0049296Y0048140D01*
X0049445Y0048085D01*
X0049592Y0048027D01*
X0049738Y0047965D01*
X0049882Y0047900D01*
X0050024Y0047830D01*
X0050165Y0047758D01*
X0050304Y0047681D01*
X0050440Y0047602D01*
X0050575Y0047518D01*
X0050708Y0047432D01*
X0050838Y0047342D01*
X0050966Y0047249D01*
X0051092Y0047153D01*
X0051215Y0047053D01*
X0051336Y0046951D01*
X0051454Y0046846D01*
X0051569Y0046737D01*
X0051682Y0046626D01*
X0051792Y0046512D01*
X0051899Y0046395D01*
X0052003Y0046276D01*
X0052104Y0046154D01*
X0052201Y0046029D01*
X0052296Y0045902D01*
X0052387Y0045773D01*
X0052476Y0045642D01*
X0052560Y0045508D01*
X0052642Y0045372D01*
X0052720Y0045235D01*
X0052794Y0045095D01*
X0052865Y0044953D01*
X0052933Y0044810D01*
X0052997Y0044665D01*
X0053057Y0044519D01*
X0053113Y0044371D01*
X0053166Y0044222D01*
X0053215Y0044071D01*
X0053260Y0043919D01*
X0053301Y0043766D01*
X0053339Y0043613D01*
X0053372Y0043458D01*
X0053402Y0043302D01*
X0053428Y0043146D01*
X0053449Y0042989D01*
X0053467Y0042832D01*
X0053481Y0042674D01*
X0053491Y0042516D01*
X0053497Y0042358D01*
X0053499Y0042200D01*
X0053497Y0042042D01*
X0053491Y0041884D01*
X0053481Y0041726D01*
X0053467Y0041568D01*
X0053449Y0041411D01*
X0053428Y0041254D01*
X0053402Y0041098D01*
X0053372Y0040942D01*
X0053339Y0040787D01*
X0053301Y0040634D01*
X0053260Y0040481D01*
X0053215Y0040329D01*
X0053166Y0040178D01*
X0053113Y0040029D01*
X0053057Y0039881D01*
X0052997Y0039735D01*
X0052933Y0039590D01*
X0052865Y0039447D01*
X0052794Y0039305D01*
X0052720Y0039165D01*
X0052642Y0039028D01*
X0052560Y0038892D01*
X0052476Y0038758D01*
X0052387Y0038627D01*
X0052296Y0038498D01*
X0052201Y0038371D01*
X0052104Y0038246D01*
X0052003Y0038124D01*
X0051899Y0038005D01*
X0051792Y0037888D01*
X0051682Y0037774D01*
X0051569Y0037663D01*
X0051454Y0037554D01*
X0051336Y0037449D01*
X0051215Y0037347D01*
X0051092Y0037247D01*
X0050966Y0037151D01*
X0050838Y0037058D01*
X0050708Y0036968D01*
X0050575Y0036882D01*
X0050440Y0036798D01*
X0050304Y0036719D01*
X0050165Y0036642D01*
X0050024Y0036570D01*
X0049882Y0036500D01*
X0049738Y0036435D01*
X0049592Y0036373D01*
X0049445Y0036315D01*
X0049296Y0036260D01*
X0049146Y0036209D01*
X0048995Y0036162D01*
X0048843Y0036119D01*
X0048690Y0036080D01*
X0048535Y0036044D01*
X0048380Y0036013D01*
X0048224Y0035985D01*
X0048068Y0035961D01*
X0047911Y0035941D01*
X0047753Y0035925D01*
X0047596Y0035913D01*
X0047437Y0035905D01*
X0047279Y0035901D01*
X0047121Y0035901D01*
X0046963Y0035905D01*
X0046804Y0035913D01*
X0046647Y0035925D01*
X0046489Y0035941D01*
X0046332Y0035961D01*
X0046176Y0035985D01*
X0046020Y0036013D01*
X0045865Y0036044D01*
X0045710Y0036080D01*
X0045557Y0036119D01*
X0045405Y0036162D01*
X0045254Y0036209D01*
X0045104Y0036260D01*
X0044955Y0036315D01*
X0044808Y0036373D01*
X0044662Y0036435D01*
X0044518Y0036500D01*
X0044376Y0036570D01*
X0044235Y0036642D01*
X0044096Y0036719D01*
X0043960Y0036798D01*
X0043825Y0036882D01*
X0043692Y0036968D01*
X0043562Y0037058D01*
X0043434Y0037151D01*
X0043308Y0037247D01*
X0043185Y0037347D01*
X0043064Y0037449D01*
X0042946Y0037554D01*
X0042831Y0037663D01*
X0042718Y0037774D01*
X0042608Y0037888D01*
X0042501Y0038005D01*
X0042397Y0038124D01*
X0042296Y0038246D01*
X0042199Y0038371D01*
X0042104Y0038498D01*
X0042013Y0038627D01*
X0041924Y0038758D01*
X0041840Y0038892D01*
X0041758Y0039028D01*
X0041680Y0039165D01*
X0041606Y0039305D01*
X0041535Y0039447D01*
X0041467Y0039590D01*
X0041403Y0039735D01*
X0041343Y0039881D01*
X0041287Y0040029D01*
X0041234Y0040178D01*
X0041185Y0040329D01*
X0041140Y0040481D01*
X0041099Y0040634D01*
X0041061Y0040787D01*
X0041028Y0040942D01*
X0040998Y0041098D01*
X0040972Y0041254D01*
X0040951Y0041411D01*
X0040933Y0041568D01*
X0040919Y0041726D01*
X0040909Y0041884D01*
X0040903Y0042042D01*
X0040901Y0042200D01*
X0040901Y0274200D02*
X0040903Y0274358D01*
X0040909Y0274516D01*
X0040919Y0274674D01*
X0040933Y0274832D01*
X0040951Y0274989D01*
X0040972Y0275146D01*
X0040998Y0275302D01*
X0041028Y0275458D01*
X0041061Y0275613D01*
X0041099Y0275766D01*
X0041140Y0275919D01*
X0041185Y0276071D01*
X0041234Y0276222D01*
X0041287Y0276371D01*
X0041343Y0276519D01*
X0041403Y0276665D01*
X0041467Y0276810D01*
X0041535Y0276953D01*
X0041606Y0277095D01*
X0041680Y0277235D01*
X0041758Y0277372D01*
X0041840Y0277508D01*
X0041924Y0277642D01*
X0042013Y0277773D01*
X0042104Y0277902D01*
X0042199Y0278029D01*
X0042296Y0278154D01*
X0042397Y0278276D01*
X0042501Y0278395D01*
X0042608Y0278512D01*
X0042718Y0278626D01*
X0042831Y0278737D01*
X0042946Y0278846D01*
X0043064Y0278951D01*
X0043185Y0279053D01*
X0043308Y0279153D01*
X0043434Y0279249D01*
X0043562Y0279342D01*
X0043692Y0279432D01*
X0043825Y0279518D01*
X0043960Y0279602D01*
X0044096Y0279681D01*
X0044235Y0279758D01*
X0044376Y0279830D01*
X0044518Y0279900D01*
X0044662Y0279965D01*
X0044808Y0280027D01*
X0044955Y0280085D01*
X0045104Y0280140D01*
X0045254Y0280191D01*
X0045405Y0280238D01*
X0045557Y0280281D01*
X0045710Y0280320D01*
X0045865Y0280356D01*
X0046020Y0280387D01*
X0046176Y0280415D01*
X0046332Y0280439D01*
X0046489Y0280459D01*
X0046647Y0280475D01*
X0046804Y0280487D01*
X0046963Y0280495D01*
X0047121Y0280499D01*
X0047279Y0280499D01*
X0047437Y0280495D01*
X0047596Y0280487D01*
X0047753Y0280475D01*
X0047911Y0280459D01*
X0048068Y0280439D01*
X0048224Y0280415D01*
X0048380Y0280387D01*
X0048535Y0280356D01*
X0048690Y0280320D01*
X0048843Y0280281D01*
X0048995Y0280238D01*
X0049146Y0280191D01*
X0049296Y0280140D01*
X0049445Y0280085D01*
X0049592Y0280027D01*
X0049738Y0279965D01*
X0049882Y0279900D01*
X0050024Y0279830D01*
X0050165Y0279758D01*
X0050304Y0279681D01*
X0050440Y0279602D01*
X0050575Y0279518D01*
X0050708Y0279432D01*
X0050838Y0279342D01*
X0050966Y0279249D01*
X0051092Y0279153D01*
X0051215Y0279053D01*
X0051336Y0278951D01*
X0051454Y0278846D01*
X0051569Y0278737D01*
X0051682Y0278626D01*
X0051792Y0278512D01*
X0051899Y0278395D01*
X0052003Y0278276D01*
X0052104Y0278154D01*
X0052201Y0278029D01*
X0052296Y0277902D01*
X0052387Y0277773D01*
X0052476Y0277642D01*
X0052560Y0277508D01*
X0052642Y0277372D01*
X0052720Y0277235D01*
X0052794Y0277095D01*
X0052865Y0276953D01*
X0052933Y0276810D01*
X0052997Y0276665D01*
X0053057Y0276519D01*
X0053113Y0276371D01*
X0053166Y0276222D01*
X0053215Y0276071D01*
X0053260Y0275919D01*
X0053301Y0275766D01*
X0053339Y0275613D01*
X0053372Y0275458D01*
X0053402Y0275302D01*
X0053428Y0275146D01*
X0053449Y0274989D01*
X0053467Y0274832D01*
X0053481Y0274674D01*
X0053491Y0274516D01*
X0053497Y0274358D01*
X0053499Y0274200D01*
X0053497Y0274042D01*
X0053491Y0273884D01*
X0053481Y0273726D01*
X0053467Y0273568D01*
X0053449Y0273411D01*
X0053428Y0273254D01*
X0053402Y0273098D01*
X0053372Y0272942D01*
X0053339Y0272787D01*
X0053301Y0272634D01*
X0053260Y0272481D01*
X0053215Y0272329D01*
X0053166Y0272178D01*
X0053113Y0272029D01*
X0053057Y0271881D01*
X0052997Y0271735D01*
X0052933Y0271590D01*
X0052865Y0271447D01*
X0052794Y0271305D01*
X0052720Y0271165D01*
X0052642Y0271028D01*
X0052560Y0270892D01*
X0052476Y0270758D01*
X0052387Y0270627D01*
X0052296Y0270498D01*
X0052201Y0270371D01*
X0052104Y0270246D01*
X0052003Y0270124D01*
X0051899Y0270005D01*
X0051792Y0269888D01*
X0051682Y0269774D01*
X0051569Y0269663D01*
X0051454Y0269554D01*
X0051336Y0269449D01*
X0051215Y0269347D01*
X0051092Y0269247D01*
X0050966Y0269151D01*
X0050838Y0269058D01*
X0050708Y0268968D01*
X0050575Y0268882D01*
X0050440Y0268798D01*
X0050304Y0268719D01*
X0050165Y0268642D01*
X0050024Y0268570D01*
X0049882Y0268500D01*
X0049738Y0268435D01*
X0049592Y0268373D01*
X0049445Y0268315D01*
X0049296Y0268260D01*
X0049146Y0268209D01*
X0048995Y0268162D01*
X0048843Y0268119D01*
X0048690Y0268080D01*
X0048535Y0268044D01*
X0048380Y0268013D01*
X0048224Y0267985D01*
X0048068Y0267961D01*
X0047911Y0267941D01*
X0047753Y0267925D01*
X0047596Y0267913D01*
X0047437Y0267905D01*
X0047279Y0267901D01*
X0047121Y0267901D01*
X0046963Y0267905D01*
X0046804Y0267913D01*
X0046647Y0267925D01*
X0046489Y0267941D01*
X0046332Y0267961D01*
X0046176Y0267985D01*
X0046020Y0268013D01*
X0045865Y0268044D01*
X0045710Y0268080D01*
X0045557Y0268119D01*
X0045405Y0268162D01*
X0045254Y0268209D01*
X0045104Y0268260D01*
X0044955Y0268315D01*
X0044808Y0268373D01*
X0044662Y0268435D01*
X0044518Y0268500D01*
X0044376Y0268570D01*
X0044235Y0268642D01*
X0044096Y0268719D01*
X0043960Y0268798D01*
X0043825Y0268882D01*
X0043692Y0268968D01*
X0043562Y0269058D01*
X0043434Y0269151D01*
X0043308Y0269247D01*
X0043185Y0269347D01*
X0043064Y0269449D01*
X0042946Y0269554D01*
X0042831Y0269663D01*
X0042718Y0269774D01*
X0042608Y0269888D01*
X0042501Y0270005D01*
X0042397Y0270124D01*
X0042296Y0270246D01*
X0042199Y0270371D01*
X0042104Y0270498D01*
X0042013Y0270627D01*
X0041924Y0270758D01*
X0041840Y0270892D01*
X0041758Y0271028D01*
X0041680Y0271165D01*
X0041606Y0271305D01*
X0041535Y0271447D01*
X0041467Y0271590D01*
X0041403Y0271735D01*
X0041343Y0271881D01*
X0041287Y0272029D01*
X0041234Y0272178D01*
X0041185Y0272329D01*
X0041140Y0272481D01*
X0041099Y0272634D01*
X0041061Y0272787D01*
X0041028Y0272942D01*
X0040998Y0273098D01*
X0040972Y0273254D01*
X0040951Y0273411D01*
X0040933Y0273568D01*
X0040919Y0273726D01*
X0040909Y0273884D01*
X0040903Y0274042D01*
X0040901Y0274200D01*
X0270901Y0274200D02*
X0270903Y0274358D01*
X0270909Y0274516D01*
X0270919Y0274674D01*
X0270933Y0274832D01*
X0270951Y0274989D01*
X0270972Y0275146D01*
X0270998Y0275302D01*
X0271028Y0275458D01*
X0271061Y0275613D01*
X0271099Y0275766D01*
X0271140Y0275919D01*
X0271185Y0276071D01*
X0271234Y0276222D01*
X0271287Y0276371D01*
X0271343Y0276519D01*
X0271403Y0276665D01*
X0271467Y0276810D01*
X0271535Y0276953D01*
X0271606Y0277095D01*
X0271680Y0277235D01*
X0271758Y0277372D01*
X0271840Y0277508D01*
X0271924Y0277642D01*
X0272013Y0277773D01*
X0272104Y0277902D01*
X0272199Y0278029D01*
X0272296Y0278154D01*
X0272397Y0278276D01*
X0272501Y0278395D01*
X0272608Y0278512D01*
X0272718Y0278626D01*
X0272831Y0278737D01*
X0272946Y0278846D01*
X0273064Y0278951D01*
X0273185Y0279053D01*
X0273308Y0279153D01*
X0273434Y0279249D01*
X0273562Y0279342D01*
X0273692Y0279432D01*
X0273825Y0279518D01*
X0273960Y0279602D01*
X0274096Y0279681D01*
X0274235Y0279758D01*
X0274376Y0279830D01*
X0274518Y0279900D01*
X0274662Y0279965D01*
X0274808Y0280027D01*
X0274955Y0280085D01*
X0275104Y0280140D01*
X0275254Y0280191D01*
X0275405Y0280238D01*
X0275557Y0280281D01*
X0275710Y0280320D01*
X0275865Y0280356D01*
X0276020Y0280387D01*
X0276176Y0280415D01*
X0276332Y0280439D01*
X0276489Y0280459D01*
X0276647Y0280475D01*
X0276804Y0280487D01*
X0276963Y0280495D01*
X0277121Y0280499D01*
X0277279Y0280499D01*
X0277437Y0280495D01*
X0277596Y0280487D01*
X0277753Y0280475D01*
X0277911Y0280459D01*
X0278068Y0280439D01*
X0278224Y0280415D01*
X0278380Y0280387D01*
X0278535Y0280356D01*
X0278690Y0280320D01*
X0278843Y0280281D01*
X0278995Y0280238D01*
X0279146Y0280191D01*
X0279296Y0280140D01*
X0279445Y0280085D01*
X0279592Y0280027D01*
X0279738Y0279965D01*
X0279882Y0279900D01*
X0280024Y0279830D01*
X0280165Y0279758D01*
X0280304Y0279681D01*
X0280440Y0279602D01*
X0280575Y0279518D01*
X0280708Y0279432D01*
X0280838Y0279342D01*
X0280966Y0279249D01*
X0281092Y0279153D01*
X0281215Y0279053D01*
X0281336Y0278951D01*
X0281454Y0278846D01*
X0281569Y0278737D01*
X0281682Y0278626D01*
X0281792Y0278512D01*
X0281899Y0278395D01*
X0282003Y0278276D01*
X0282104Y0278154D01*
X0282201Y0278029D01*
X0282296Y0277902D01*
X0282387Y0277773D01*
X0282476Y0277642D01*
X0282560Y0277508D01*
X0282642Y0277372D01*
X0282720Y0277235D01*
X0282794Y0277095D01*
X0282865Y0276953D01*
X0282933Y0276810D01*
X0282997Y0276665D01*
X0283057Y0276519D01*
X0283113Y0276371D01*
X0283166Y0276222D01*
X0283215Y0276071D01*
X0283260Y0275919D01*
X0283301Y0275766D01*
X0283339Y0275613D01*
X0283372Y0275458D01*
X0283402Y0275302D01*
X0283428Y0275146D01*
X0283449Y0274989D01*
X0283467Y0274832D01*
X0283481Y0274674D01*
X0283491Y0274516D01*
X0283497Y0274358D01*
X0283499Y0274200D01*
X0283497Y0274042D01*
X0283491Y0273884D01*
X0283481Y0273726D01*
X0283467Y0273568D01*
X0283449Y0273411D01*
X0283428Y0273254D01*
X0283402Y0273098D01*
X0283372Y0272942D01*
X0283339Y0272787D01*
X0283301Y0272634D01*
X0283260Y0272481D01*
X0283215Y0272329D01*
X0283166Y0272178D01*
X0283113Y0272029D01*
X0283057Y0271881D01*
X0282997Y0271735D01*
X0282933Y0271590D01*
X0282865Y0271447D01*
X0282794Y0271305D01*
X0282720Y0271165D01*
X0282642Y0271028D01*
X0282560Y0270892D01*
X0282476Y0270758D01*
X0282387Y0270627D01*
X0282296Y0270498D01*
X0282201Y0270371D01*
X0282104Y0270246D01*
X0282003Y0270124D01*
X0281899Y0270005D01*
X0281792Y0269888D01*
X0281682Y0269774D01*
X0281569Y0269663D01*
X0281454Y0269554D01*
X0281336Y0269449D01*
X0281215Y0269347D01*
X0281092Y0269247D01*
X0280966Y0269151D01*
X0280838Y0269058D01*
X0280708Y0268968D01*
X0280575Y0268882D01*
X0280440Y0268798D01*
X0280304Y0268719D01*
X0280165Y0268642D01*
X0280024Y0268570D01*
X0279882Y0268500D01*
X0279738Y0268435D01*
X0279592Y0268373D01*
X0279445Y0268315D01*
X0279296Y0268260D01*
X0279146Y0268209D01*
X0278995Y0268162D01*
X0278843Y0268119D01*
X0278690Y0268080D01*
X0278535Y0268044D01*
X0278380Y0268013D01*
X0278224Y0267985D01*
X0278068Y0267961D01*
X0277911Y0267941D01*
X0277753Y0267925D01*
X0277596Y0267913D01*
X0277437Y0267905D01*
X0277279Y0267901D01*
X0277121Y0267901D01*
X0276963Y0267905D01*
X0276804Y0267913D01*
X0276647Y0267925D01*
X0276489Y0267941D01*
X0276332Y0267961D01*
X0276176Y0267985D01*
X0276020Y0268013D01*
X0275865Y0268044D01*
X0275710Y0268080D01*
X0275557Y0268119D01*
X0275405Y0268162D01*
X0275254Y0268209D01*
X0275104Y0268260D01*
X0274955Y0268315D01*
X0274808Y0268373D01*
X0274662Y0268435D01*
X0274518Y0268500D01*
X0274376Y0268570D01*
X0274235Y0268642D01*
X0274096Y0268719D01*
X0273960Y0268798D01*
X0273825Y0268882D01*
X0273692Y0268968D01*
X0273562Y0269058D01*
X0273434Y0269151D01*
X0273308Y0269247D01*
X0273185Y0269347D01*
X0273064Y0269449D01*
X0272946Y0269554D01*
X0272831Y0269663D01*
X0272718Y0269774D01*
X0272608Y0269888D01*
X0272501Y0270005D01*
X0272397Y0270124D01*
X0272296Y0270246D01*
X0272199Y0270371D01*
X0272104Y0270498D01*
X0272013Y0270627D01*
X0271924Y0270758D01*
X0271840Y0270892D01*
X0271758Y0271028D01*
X0271680Y0271165D01*
X0271606Y0271305D01*
X0271535Y0271447D01*
X0271467Y0271590D01*
X0271403Y0271735D01*
X0271343Y0271881D01*
X0271287Y0272029D01*
X0271234Y0272178D01*
X0271185Y0272329D01*
X0271140Y0272481D01*
X0271099Y0272634D01*
X0271061Y0272787D01*
X0271028Y0272942D01*
X0270998Y0273098D01*
X0270972Y0273254D01*
X0270951Y0273411D01*
X0270933Y0273568D01*
X0270919Y0273726D01*
X0270909Y0273884D01*
X0270903Y0274042D01*
X0270901Y0274200D01*
X0270901Y0042200D02*
X0270903Y0042358D01*
X0270909Y0042516D01*
X0270919Y0042674D01*
X0270933Y0042832D01*
X0270951Y0042989D01*
X0270972Y0043146D01*
X0270998Y0043302D01*
X0271028Y0043458D01*
X0271061Y0043613D01*
X0271099Y0043766D01*
X0271140Y0043919D01*
X0271185Y0044071D01*
X0271234Y0044222D01*
X0271287Y0044371D01*
X0271343Y0044519D01*
X0271403Y0044665D01*
X0271467Y0044810D01*
X0271535Y0044953D01*
X0271606Y0045095D01*
X0271680Y0045235D01*
X0271758Y0045372D01*
X0271840Y0045508D01*
X0271924Y0045642D01*
X0272013Y0045773D01*
X0272104Y0045902D01*
X0272199Y0046029D01*
X0272296Y0046154D01*
X0272397Y0046276D01*
X0272501Y0046395D01*
X0272608Y0046512D01*
X0272718Y0046626D01*
X0272831Y0046737D01*
X0272946Y0046846D01*
X0273064Y0046951D01*
X0273185Y0047053D01*
X0273308Y0047153D01*
X0273434Y0047249D01*
X0273562Y0047342D01*
X0273692Y0047432D01*
X0273825Y0047518D01*
X0273960Y0047602D01*
X0274096Y0047681D01*
X0274235Y0047758D01*
X0274376Y0047830D01*
X0274518Y0047900D01*
X0274662Y0047965D01*
X0274808Y0048027D01*
X0274955Y0048085D01*
X0275104Y0048140D01*
X0275254Y0048191D01*
X0275405Y0048238D01*
X0275557Y0048281D01*
X0275710Y0048320D01*
X0275865Y0048356D01*
X0276020Y0048387D01*
X0276176Y0048415D01*
X0276332Y0048439D01*
X0276489Y0048459D01*
X0276647Y0048475D01*
X0276804Y0048487D01*
X0276963Y0048495D01*
X0277121Y0048499D01*
X0277279Y0048499D01*
X0277437Y0048495D01*
X0277596Y0048487D01*
X0277753Y0048475D01*
X0277911Y0048459D01*
X0278068Y0048439D01*
X0278224Y0048415D01*
X0278380Y0048387D01*
X0278535Y0048356D01*
X0278690Y0048320D01*
X0278843Y0048281D01*
X0278995Y0048238D01*
X0279146Y0048191D01*
X0279296Y0048140D01*
X0279445Y0048085D01*
X0279592Y0048027D01*
X0279738Y0047965D01*
X0279882Y0047900D01*
X0280024Y0047830D01*
X0280165Y0047758D01*
X0280304Y0047681D01*
X0280440Y0047602D01*
X0280575Y0047518D01*
X0280708Y0047432D01*
X0280838Y0047342D01*
X0280966Y0047249D01*
X0281092Y0047153D01*
X0281215Y0047053D01*
X0281336Y0046951D01*
X0281454Y0046846D01*
X0281569Y0046737D01*
X0281682Y0046626D01*
X0281792Y0046512D01*
X0281899Y0046395D01*
X0282003Y0046276D01*
X0282104Y0046154D01*
X0282201Y0046029D01*
X0282296Y0045902D01*
X0282387Y0045773D01*
X0282476Y0045642D01*
X0282560Y0045508D01*
X0282642Y0045372D01*
X0282720Y0045235D01*
X0282794Y0045095D01*
X0282865Y0044953D01*
X0282933Y0044810D01*
X0282997Y0044665D01*
X0283057Y0044519D01*
X0283113Y0044371D01*
X0283166Y0044222D01*
X0283215Y0044071D01*
X0283260Y0043919D01*
X0283301Y0043766D01*
X0283339Y0043613D01*
X0283372Y0043458D01*
X0283402Y0043302D01*
X0283428Y0043146D01*
X0283449Y0042989D01*
X0283467Y0042832D01*
X0283481Y0042674D01*
X0283491Y0042516D01*
X0283497Y0042358D01*
X0283499Y0042200D01*
X0283497Y0042042D01*
X0283491Y0041884D01*
X0283481Y0041726D01*
X0283467Y0041568D01*
X0283449Y0041411D01*
X0283428Y0041254D01*
X0283402Y0041098D01*
X0283372Y0040942D01*
X0283339Y0040787D01*
X0283301Y0040634D01*
X0283260Y0040481D01*
X0283215Y0040329D01*
X0283166Y0040178D01*
X0283113Y0040029D01*
X0283057Y0039881D01*
X0282997Y0039735D01*
X0282933Y0039590D01*
X0282865Y0039447D01*
X0282794Y0039305D01*
X0282720Y0039165D01*
X0282642Y0039028D01*
X0282560Y0038892D01*
X0282476Y0038758D01*
X0282387Y0038627D01*
X0282296Y0038498D01*
X0282201Y0038371D01*
X0282104Y0038246D01*
X0282003Y0038124D01*
X0281899Y0038005D01*
X0281792Y0037888D01*
X0281682Y0037774D01*
X0281569Y0037663D01*
X0281454Y0037554D01*
X0281336Y0037449D01*
X0281215Y0037347D01*
X0281092Y0037247D01*
X0280966Y0037151D01*
X0280838Y0037058D01*
X0280708Y0036968D01*
X0280575Y0036882D01*
X0280440Y0036798D01*
X0280304Y0036719D01*
X0280165Y0036642D01*
X0280024Y0036570D01*
X0279882Y0036500D01*
X0279738Y0036435D01*
X0279592Y0036373D01*
X0279445Y0036315D01*
X0279296Y0036260D01*
X0279146Y0036209D01*
X0278995Y0036162D01*
X0278843Y0036119D01*
X0278690Y0036080D01*
X0278535Y0036044D01*
X0278380Y0036013D01*
X0278224Y0035985D01*
X0278068Y0035961D01*
X0277911Y0035941D01*
X0277753Y0035925D01*
X0277596Y0035913D01*
X0277437Y0035905D01*
X0277279Y0035901D01*
X0277121Y0035901D01*
X0276963Y0035905D01*
X0276804Y0035913D01*
X0276647Y0035925D01*
X0276489Y0035941D01*
X0276332Y0035961D01*
X0276176Y0035985D01*
X0276020Y0036013D01*
X0275865Y0036044D01*
X0275710Y0036080D01*
X0275557Y0036119D01*
X0275405Y0036162D01*
X0275254Y0036209D01*
X0275104Y0036260D01*
X0274955Y0036315D01*
X0274808Y0036373D01*
X0274662Y0036435D01*
X0274518Y0036500D01*
X0274376Y0036570D01*
X0274235Y0036642D01*
X0274096Y0036719D01*
X0273960Y0036798D01*
X0273825Y0036882D01*
X0273692Y0036968D01*
X0273562Y0037058D01*
X0273434Y0037151D01*
X0273308Y0037247D01*
X0273185Y0037347D01*
X0273064Y0037449D01*
X0272946Y0037554D01*
X0272831Y0037663D01*
X0272718Y0037774D01*
X0272608Y0037888D01*
X0272501Y0038005D01*
X0272397Y0038124D01*
X0272296Y0038246D01*
X0272199Y0038371D01*
X0272104Y0038498D01*
X0272013Y0038627D01*
X0271924Y0038758D01*
X0271840Y0038892D01*
X0271758Y0039028D01*
X0271680Y0039165D01*
X0271606Y0039305D01*
X0271535Y0039447D01*
X0271467Y0039590D01*
X0271403Y0039735D01*
X0271343Y0039881D01*
X0271287Y0040029D01*
X0271234Y0040178D01*
X0271185Y0040329D01*
X0271140Y0040481D01*
X0271099Y0040634D01*
X0271061Y0040787D01*
X0271028Y0040942D01*
X0270998Y0041098D01*
X0270972Y0041254D01*
X0270951Y0041411D01*
X0270933Y0041568D01*
X0270919Y0041726D01*
X0270909Y0041884D01*
X0270903Y0042042D01*
X0270901Y0042200D01*
M02*
