%
M48
M72
T01C0.0320
T02C0.0400
T03C0.0520
T04C0.0550
T05C0.1260
%
T01
X4720Y8220
X4720Y10220
X6020Y13720
X7420Y13720
X9720Y11720
X9720Y10220
X11220Y9220
X12720Y8220
X11220Y7220
X9720Y8220
X11220Y12220
X12220Y12220
X13220Y12220
X14220Y10220
X17720Y8220
X19220Y8220
X19220Y10220
X17220Y5920
X17220Y4520
X14220Y4220
X14220Y6220
X15220Y15720
X16720Y15720
X16720Y20720
X15220Y20720
X12720Y22720
X17720Y22720
X9720Y16720
X24220Y8220
X25720Y8220
X26220Y9720
X27720Y11220
X26220Y11720
X26220Y13220
X27720Y16220
X26220Y18220
X25720Y6220
T02
X23720Y13220
X20720Y13220
X20720Y20220
X23720Y20220
X12720Y17620
X12720Y16720
X12720Y15820
X8720Y20220
X5720Y20220
T03
X8730Y4720
X10710Y4720
X21730Y4720
X23710Y4720
X27720Y20730
X27720Y22710
T04
X24370Y25970
X22220Y25970
X20070Y25970
X12370Y25970
X10220Y25970
X8070Y25970
T05
X4720Y4220
X27720Y4220
X27720Y27420
X4720Y27420
M30
