G75*
%MOIN*%
%OFA0B0*%
%FSLAX25Y25*%
%IPPOS*%
%LPD*%
%AMOC8*
5,1,8,0,0,1.08239X$1,22.5*
%
%ADD10OC8,0.06200*%
%ADD11OC8,0.06300*%
%ADD12C,0.06300*%
%ADD13OC8,0.12400*%
%ADD14C,0.12400*%
%ADD15C,0.06200*%
%ADD16C,0.07000*%
%ADD17C,0.08500*%
%ADD18C,0.08200*%
%ADD19C,0.01000*%
%ADD20C,0.02400*%
D10*
X0047200Y0082200D03*
X0047200Y0102200D03*
X0097200Y0102200D03*
X0097200Y0117200D03*
X0112200Y0092200D03*
X0127200Y0082200D03*
X0112200Y0072200D03*
X0097200Y0082200D03*
X0142200Y0062200D03*
X0142200Y0042200D03*
X0177200Y0082200D03*
X0192200Y0082200D03*
X0192200Y0102200D03*
X0242200Y0082200D03*
X0257200Y0082200D03*
X0262200Y0097200D03*
X0277200Y0112200D03*
X0262200Y0117200D03*
X0262200Y0132200D03*
X0277200Y0162200D03*
X0262200Y0182200D03*
X0177200Y0227200D03*
X0167200Y0207200D03*
X0152200Y0207200D03*
X0127200Y0227200D03*
X0097200Y0167200D03*
X0152200Y0157200D03*
X0167200Y0157200D03*
X0142200Y0102200D03*
X0257200Y0062200D03*
D11*
X0172200Y0045200D03*
X0074200Y0137200D03*
D12*
X0060200Y0137200D03*
X0172200Y0059200D03*
D13*
X0237200Y0132200D03*
X0237200Y0202200D03*
X0057200Y0202200D03*
D14*
X0087200Y0202200D03*
X0207200Y0202200D03*
X0207200Y0132200D03*
D15*
X0132200Y0125300D02*
X0132200Y0119100D01*
X0122200Y0119100D02*
X0122200Y0125300D01*
X0112200Y0125300D02*
X0112200Y0119100D01*
D16*
X0123700Y0158200D02*
X0130700Y0158200D01*
X0130700Y0167200D02*
X0123700Y0167200D01*
X0123700Y0176200D02*
X0130700Y0176200D01*
D17*
X0123700Y0255450D02*
X0123700Y0263950D01*
X0102200Y0263950D02*
X0102200Y0255450D01*
X0080700Y0255450D02*
X0080700Y0263950D01*
X0200700Y0263950D02*
X0200700Y0255450D01*
X0222200Y0255450D02*
X0222200Y0263950D01*
X0243700Y0263950D02*
X0243700Y0255450D01*
D18*
X0273100Y0227100D02*
X0281300Y0227100D01*
X0281300Y0207300D02*
X0273100Y0207300D01*
X0237100Y0051300D02*
X0237100Y0043100D01*
X0217300Y0043100D02*
X0217300Y0051300D01*
X0107100Y0051300D02*
X0107100Y0043100D01*
X0087300Y0043100D02*
X0087300Y0051300D01*
D19*
X0091200Y0051157D02*
X0083200Y0051157D01*
X0083200Y0052155D02*
X0091200Y0052155D01*
X0091200Y0052200D02*
X0091200Y0043200D01*
X0083200Y0043200D01*
X0083200Y0056200D01*
X0095200Y0068200D01*
X0103200Y0068200D01*
X0111200Y0076200D01*
X0114200Y0076200D01*
X0117200Y0073200D01*
X0117200Y0070200D01*
X0110200Y0063200D01*
X0102200Y0063200D01*
X0091200Y0052200D01*
X0092154Y0053154D02*
X0083200Y0053154D01*
X0083200Y0054152D02*
X0093152Y0054152D01*
X0094151Y0055151D02*
X0083200Y0055151D01*
X0083200Y0056149D02*
X0095149Y0056149D01*
X0096148Y0057148D02*
X0084148Y0057148D01*
X0085146Y0058146D02*
X0097146Y0058146D01*
X0098145Y0059145D02*
X0086145Y0059145D01*
X0087143Y0060143D02*
X0099143Y0060143D01*
X0100142Y0061142D02*
X0088142Y0061142D01*
X0089140Y0062140D02*
X0101140Y0062140D01*
X0102139Y0063139D02*
X0090139Y0063139D01*
X0091137Y0064137D02*
X0111137Y0064137D01*
X0112136Y0065136D02*
X0092136Y0065136D01*
X0093134Y0066134D02*
X0113134Y0066134D01*
X0114133Y0067133D02*
X0094133Y0067133D01*
X0095132Y0068132D02*
X0115132Y0068132D01*
X0116130Y0069130D02*
X0104130Y0069130D01*
X0105129Y0070129D02*
X0117129Y0070129D01*
X0117200Y0071127D02*
X0106127Y0071127D01*
X0107126Y0072126D02*
X0117200Y0072126D01*
X0117200Y0073124D02*
X0108124Y0073124D01*
X0109123Y0074123D02*
X0116277Y0074123D01*
X0115279Y0075121D02*
X0110121Y0075121D01*
X0111120Y0076120D02*
X0114280Y0076120D01*
X0119288Y0081112D02*
X0131112Y0081112D01*
X0131200Y0081200D02*
X0129200Y0079200D01*
X0121200Y0079200D01*
X0116200Y0084200D01*
X0108200Y0084200D01*
X0103200Y0079200D01*
X0096200Y0079200D01*
X0094200Y0081200D01*
X0094200Y0084200D01*
X0119200Y0109200D01*
X0119200Y0127200D01*
X0120200Y0128200D01*
X0124200Y0128200D01*
X0125200Y0127200D01*
X0125200Y0110200D01*
X0131200Y0104200D01*
X0131200Y0081200D01*
X0131200Y0082111D02*
X0118289Y0082111D01*
X0117291Y0083109D02*
X0131200Y0083109D01*
X0131200Y0084108D02*
X0116292Y0084108D01*
X0120286Y0080114D02*
X0130114Y0080114D01*
X0131200Y0085106D02*
X0095106Y0085106D01*
X0094200Y0084108D02*
X0108108Y0084108D01*
X0107109Y0083109D02*
X0094200Y0083109D01*
X0094200Y0082111D02*
X0106111Y0082111D01*
X0105112Y0081112D02*
X0094288Y0081112D01*
X0095286Y0080114D02*
X0104114Y0080114D01*
X0096105Y0086105D02*
X0131200Y0086105D01*
X0131200Y0087103D02*
X0097103Y0087103D01*
X0098102Y0088102D02*
X0131200Y0088102D01*
X0131200Y0089100D02*
X0099100Y0089100D01*
X0100099Y0090099D02*
X0131200Y0090099D01*
X0131200Y0091097D02*
X0101097Y0091097D01*
X0102096Y0092096D02*
X0131200Y0092096D01*
X0131200Y0093094D02*
X0103094Y0093094D01*
X0104093Y0094093D02*
X0131200Y0094093D01*
X0131200Y0095091D02*
X0105091Y0095091D01*
X0106090Y0096090D02*
X0131200Y0096090D01*
X0131200Y0097088D02*
X0107088Y0097088D01*
X0108087Y0098087D02*
X0131200Y0098087D01*
X0131200Y0099085D02*
X0109085Y0099085D01*
X0110084Y0100084D02*
X0131200Y0100084D01*
X0131200Y0101082D02*
X0111082Y0101082D01*
X0112081Y0102081D02*
X0131200Y0102081D01*
X0131200Y0103079D02*
X0113079Y0103079D01*
X0114078Y0104078D02*
X0131200Y0104078D01*
X0130324Y0105076D02*
X0115076Y0105076D01*
X0116075Y0106075D02*
X0129325Y0106075D01*
X0128327Y0107073D02*
X0117073Y0107073D01*
X0118072Y0108072D02*
X0127328Y0108072D01*
X0126330Y0109070D02*
X0119070Y0109070D01*
X0119200Y0110069D02*
X0125331Y0110069D01*
X0125200Y0111068D02*
X0119200Y0111068D01*
X0119200Y0112066D02*
X0125200Y0112066D01*
X0125200Y0113065D02*
X0119200Y0113065D01*
X0119200Y0114063D02*
X0125200Y0114063D01*
X0125200Y0115062D02*
X0119200Y0115062D01*
X0119200Y0116060D02*
X0125200Y0116060D01*
X0125200Y0117059D02*
X0119200Y0117059D01*
X0119200Y0118057D02*
X0125200Y0118057D01*
X0125200Y0119056D02*
X0119200Y0119056D01*
X0119200Y0120054D02*
X0125200Y0120054D01*
X0125200Y0121053D02*
X0119200Y0121053D01*
X0119200Y0122051D02*
X0125200Y0122051D01*
X0125200Y0123050D02*
X0119200Y0123050D01*
X0119200Y0124048D02*
X0125200Y0124048D01*
X0125200Y0125047D02*
X0119200Y0125047D01*
X0119200Y0126045D02*
X0125200Y0126045D01*
X0125200Y0127044D02*
X0119200Y0127044D01*
X0120042Y0128042D02*
X0124358Y0128042D01*
X0129200Y0128042D02*
X0146200Y0128042D01*
X0146200Y0127044D02*
X0129200Y0127044D01*
X0129200Y0126045D02*
X0146200Y0126045D01*
X0146200Y0125047D02*
X0129200Y0125047D01*
X0129200Y0124048D02*
X0146200Y0124048D01*
X0146200Y0123050D02*
X0129200Y0123050D01*
X0129200Y0122051D02*
X0146200Y0122051D01*
X0146200Y0121053D02*
X0129200Y0121053D01*
X0129200Y0120054D02*
X0146200Y0120054D01*
X0146200Y0119056D02*
X0129200Y0119056D01*
X0129200Y0118057D02*
X0146200Y0118057D01*
X0146200Y0117059D02*
X0129341Y0117059D01*
X0129200Y0117200D02*
X0129200Y0146200D01*
X0120200Y0155200D01*
X0120200Y0159200D01*
X0122200Y0161200D01*
X0131200Y0161200D01*
X0146200Y0146200D01*
X0146200Y0100200D01*
X0144200Y0098200D01*
X0140200Y0098200D01*
X0138200Y0100200D01*
X0138200Y0108200D01*
X0129200Y0117200D01*
X0130340Y0116060D02*
X0146200Y0116060D01*
X0146200Y0115062D02*
X0131338Y0115062D01*
X0132337Y0114063D02*
X0146200Y0114063D01*
X0146200Y0113065D02*
X0133335Y0113065D01*
X0134334Y0112066D02*
X0146200Y0112066D01*
X0146200Y0111068D02*
X0135332Y0111068D01*
X0136331Y0110069D02*
X0146200Y0110069D01*
X0146200Y0109070D02*
X0137330Y0109070D01*
X0138200Y0108072D02*
X0146200Y0108072D01*
X0146200Y0107073D02*
X0138200Y0107073D01*
X0138200Y0106075D02*
X0146200Y0106075D01*
X0146200Y0105076D02*
X0138200Y0105076D01*
X0138200Y0104078D02*
X0146200Y0104078D01*
X0146200Y0103079D02*
X0138200Y0103079D01*
X0138200Y0102081D02*
X0146200Y0102081D01*
X0146200Y0101082D02*
X0138200Y0101082D01*
X0138316Y0100084D02*
X0146084Y0100084D01*
X0145085Y0099085D02*
X0139315Y0099085D01*
X0155108Y0084108D02*
X0196200Y0084108D01*
X0196200Y0084200D02*
X0196200Y0076200D01*
X0175200Y0055200D01*
X0142200Y0055200D01*
X0138200Y0059200D01*
X0138200Y0067200D01*
X0157200Y0086200D01*
X0194200Y0086200D01*
X0196200Y0084200D01*
X0196200Y0083109D02*
X0154109Y0083109D01*
X0153111Y0082111D02*
X0196200Y0082111D01*
X0196200Y0081112D02*
X0152112Y0081112D01*
X0151114Y0080114D02*
X0196200Y0080114D01*
X0196200Y0079115D02*
X0150115Y0079115D01*
X0149117Y0078117D02*
X0196200Y0078117D01*
X0196200Y0077118D02*
X0148118Y0077118D01*
X0147120Y0076120D02*
X0196120Y0076120D01*
X0195121Y0075121D02*
X0146121Y0075121D01*
X0145123Y0074123D02*
X0194123Y0074123D01*
X0193124Y0073124D02*
X0144124Y0073124D01*
X0143126Y0072126D02*
X0192126Y0072126D01*
X0191127Y0071127D02*
X0142127Y0071127D01*
X0141129Y0070129D02*
X0190129Y0070129D01*
X0189130Y0069130D02*
X0140130Y0069130D01*
X0139132Y0068132D02*
X0188132Y0068132D01*
X0187133Y0067133D02*
X0138200Y0067133D01*
X0138200Y0066134D02*
X0186134Y0066134D01*
X0185136Y0065136D02*
X0138200Y0065136D01*
X0138200Y0064137D02*
X0184137Y0064137D01*
X0183139Y0063139D02*
X0138200Y0063139D01*
X0138200Y0062140D02*
X0182140Y0062140D01*
X0181142Y0061142D02*
X0138200Y0061142D01*
X0138200Y0060143D02*
X0180143Y0060143D01*
X0179145Y0059145D02*
X0138255Y0059145D01*
X0139254Y0058146D02*
X0178146Y0058146D01*
X0177148Y0057148D02*
X0140252Y0057148D01*
X0141251Y0056149D02*
X0176149Y0056149D01*
X0195294Y0085106D02*
X0156106Y0085106D01*
X0157105Y0086105D02*
X0194295Y0086105D01*
X0212200Y0086105D02*
X0258295Y0086105D01*
X0258200Y0086200D02*
X0261200Y0083200D01*
X0261200Y0079200D01*
X0258200Y0076200D01*
X0232200Y0076200D01*
X0222200Y0066200D01*
X0222200Y0041200D01*
X0219200Y0038200D01*
X0215200Y0038200D01*
X0212200Y0041200D01*
X0212200Y0112200D01*
X0171200Y0153200D01*
X0166200Y0153200D01*
X0163200Y0156200D01*
X0163200Y0181200D01*
X0177200Y0195200D01*
X0177200Y0214200D01*
X0217200Y0254200D01*
X0217200Y0266200D01*
X0219200Y0268200D01*
X0225200Y0268200D01*
X0227200Y0266200D01*
X0227200Y0246200D01*
X0189200Y0208200D01*
X0189200Y0162200D01*
X0229200Y0122200D01*
X0229200Y0096200D01*
X0239200Y0086200D01*
X0258200Y0086200D01*
X0259294Y0085106D02*
X0212200Y0085106D01*
X0212200Y0084108D02*
X0260292Y0084108D01*
X0261200Y0083109D02*
X0212200Y0083109D01*
X0212200Y0082111D02*
X0261200Y0082111D01*
X0261200Y0081112D02*
X0212200Y0081112D01*
X0212200Y0080114D02*
X0261200Y0080114D01*
X0261115Y0079115D02*
X0212200Y0079115D01*
X0212200Y0078117D02*
X0260117Y0078117D01*
X0259118Y0077118D02*
X0212200Y0077118D01*
X0212200Y0076120D02*
X0232120Y0076120D01*
X0231121Y0075121D02*
X0212200Y0075121D01*
X0212200Y0074123D02*
X0230123Y0074123D01*
X0229124Y0073124D02*
X0212200Y0073124D01*
X0212200Y0072126D02*
X0228126Y0072126D01*
X0227127Y0071127D02*
X0212200Y0071127D01*
X0212200Y0070129D02*
X0226129Y0070129D01*
X0225130Y0069130D02*
X0212200Y0069130D01*
X0212200Y0068132D02*
X0224132Y0068132D01*
X0223133Y0067133D02*
X0212200Y0067133D01*
X0212200Y0066134D02*
X0222200Y0066134D01*
X0222200Y0065136D02*
X0212200Y0065136D01*
X0212200Y0064137D02*
X0222200Y0064137D01*
X0222200Y0063139D02*
X0212200Y0063139D01*
X0212200Y0062140D02*
X0222200Y0062140D01*
X0222200Y0061142D02*
X0212200Y0061142D01*
X0212200Y0060143D02*
X0222200Y0060143D01*
X0222200Y0059145D02*
X0212200Y0059145D01*
X0212200Y0058146D02*
X0222200Y0058146D01*
X0222200Y0057148D02*
X0212200Y0057148D01*
X0212200Y0056149D02*
X0222200Y0056149D01*
X0222200Y0055151D02*
X0212200Y0055151D01*
X0212200Y0054152D02*
X0222200Y0054152D01*
X0222200Y0053154D02*
X0212200Y0053154D01*
X0212200Y0052155D02*
X0222200Y0052155D01*
X0222200Y0051157D02*
X0212200Y0051157D01*
X0212200Y0050158D02*
X0222200Y0050158D01*
X0222200Y0049160D02*
X0212200Y0049160D01*
X0212200Y0048161D02*
X0222200Y0048161D01*
X0222200Y0047163D02*
X0212200Y0047163D01*
X0212200Y0046164D02*
X0222200Y0046164D01*
X0222200Y0045166D02*
X0212200Y0045166D01*
X0212200Y0044167D02*
X0222200Y0044167D01*
X0222200Y0043169D02*
X0212200Y0043169D01*
X0212200Y0042170D02*
X0222200Y0042170D01*
X0222172Y0041172D02*
X0212228Y0041172D01*
X0213227Y0040173D02*
X0221173Y0040173D01*
X0220175Y0039175D02*
X0214225Y0039175D01*
X0212200Y0087103D02*
X0238297Y0087103D01*
X0237298Y0088102D02*
X0212200Y0088102D01*
X0212200Y0089100D02*
X0236300Y0089100D01*
X0235301Y0090099D02*
X0212200Y0090099D01*
X0212200Y0091097D02*
X0234303Y0091097D01*
X0233304Y0092096D02*
X0212200Y0092096D01*
X0212200Y0093094D02*
X0232306Y0093094D01*
X0231307Y0094093D02*
X0212200Y0094093D01*
X0212200Y0095091D02*
X0230309Y0095091D01*
X0229310Y0096090D02*
X0212200Y0096090D01*
X0212200Y0097088D02*
X0229200Y0097088D01*
X0229200Y0098087D02*
X0212200Y0098087D01*
X0212200Y0099085D02*
X0229200Y0099085D01*
X0229200Y0100084D02*
X0212200Y0100084D01*
X0212200Y0101082D02*
X0229200Y0101082D01*
X0229200Y0102081D02*
X0212200Y0102081D01*
X0212200Y0103079D02*
X0229200Y0103079D01*
X0229200Y0104078D02*
X0212200Y0104078D01*
X0212200Y0105076D02*
X0229200Y0105076D01*
X0229200Y0106075D02*
X0212200Y0106075D01*
X0212200Y0107073D02*
X0229200Y0107073D01*
X0229200Y0108072D02*
X0212200Y0108072D01*
X0212200Y0109070D02*
X0229200Y0109070D01*
X0229200Y0110069D02*
X0212200Y0110069D01*
X0212200Y0111068D02*
X0229200Y0111068D01*
X0229200Y0112066D02*
X0212200Y0112066D01*
X0211335Y0113065D02*
X0229200Y0113065D01*
X0229200Y0114063D02*
X0210337Y0114063D01*
X0209338Y0115062D02*
X0229200Y0115062D01*
X0229200Y0116060D02*
X0208340Y0116060D01*
X0207341Y0117059D02*
X0229200Y0117059D01*
X0229200Y0118057D02*
X0206343Y0118057D01*
X0205344Y0119056D02*
X0229200Y0119056D01*
X0229200Y0120054D02*
X0204346Y0120054D01*
X0203347Y0121053D02*
X0229200Y0121053D01*
X0229200Y0122051D02*
X0202349Y0122051D01*
X0201350Y0123050D02*
X0228350Y0123050D01*
X0227352Y0124048D02*
X0200352Y0124048D01*
X0199353Y0125047D02*
X0226353Y0125047D01*
X0225355Y0126045D02*
X0198355Y0126045D01*
X0197356Y0127044D02*
X0224356Y0127044D01*
X0223358Y0128042D02*
X0196358Y0128042D01*
X0195359Y0129041D02*
X0222359Y0129041D01*
X0221361Y0130039D02*
X0194361Y0130039D01*
X0193362Y0131038D02*
X0220362Y0131038D01*
X0219364Y0132036D02*
X0192364Y0132036D01*
X0191365Y0133035D02*
X0218365Y0133035D01*
X0217367Y0134033D02*
X0190367Y0134033D01*
X0189368Y0135032D02*
X0216368Y0135032D01*
X0215370Y0136030D02*
X0188370Y0136030D01*
X0187371Y0137029D02*
X0214371Y0137029D01*
X0213373Y0138027D02*
X0186373Y0138027D01*
X0185374Y0139026D02*
X0212374Y0139026D01*
X0211376Y0140024D02*
X0184376Y0140024D01*
X0183377Y0141023D02*
X0210377Y0141023D01*
X0209379Y0142021D02*
X0182379Y0142021D01*
X0181380Y0143020D02*
X0208380Y0143020D01*
X0207382Y0144018D02*
X0180382Y0144018D01*
X0179383Y0145017D02*
X0206383Y0145017D01*
X0205385Y0146015D02*
X0178385Y0146015D01*
X0177386Y0147014D02*
X0204386Y0147014D01*
X0203388Y0148012D02*
X0176388Y0148012D01*
X0175389Y0149011D02*
X0202389Y0149011D01*
X0201391Y0150009D02*
X0174391Y0150009D01*
X0173392Y0151008D02*
X0200392Y0151008D01*
X0199394Y0152006D02*
X0172394Y0152006D01*
X0171395Y0153005D02*
X0198395Y0153005D01*
X0197397Y0154003D02*
X0165397Y0154003D01*
X0164398Y0155002D02*
X0196398Y0155002D01*
X0195399Y0156001D02*
X0163399Y0156001D01*
X0163200Y0156999D02*
X0194401Y0156999D01*
X0193402Y0157998D02*
X0163200Y0157998D01*
X0163200Y0158996D02*
X0192404Y0158996D01*
X0191405Y0159995D02*
X0163200Y0159995D01*
X0163200Y0160993D02*
X0190407Y0160993D01*
X0189408Y0161992D02*
X0163200Y0161992D01*
X0163200Y0162990D02*
X0189200Y0162990D01*
X0189200Y0163989D02*
X0163200Y0163989D01*
X0163200Y0164987D02*
X0189200Y0164987D01*
X0189200Y0165986D02*
X0163200Y0165986D01*
X0163200Y0166984D02*
X0189200Y0166984D01*
X0189200Y0167983D02*
X0163200Y0167983D01*
X0163200Y0168981D02*
X0189200Y0168981D01*
X0189200Y0169980D02*
X0163200Y0169980D01*
X0163200Y0170978D02*
X0189200Y0170978D01*
X0189200Y0171977D02*
X0163200Y0171977D01*
X0163200Y0172975D02*
X0189200Y0172975D01*
X0189200Y0173974D02*
X0163200Y0173974D01*
X0163200Y0174972D02*
X0189200Y0174972D01*
X0189200Y0175971D02*
X0163200Y0175971D01*
X0163200Y0176969D02*
X0189200Y0176969D01*
X0189200Y0177968D02*
X0163200Y0177968D01*
X0163200Y0178966D02*
X0189200Y0178966D01*
X0189200Y0179965D02*
X0163200Y0179965D01*
X0163200Y0180963D02*
X0189200Y0180963D01*
X0189200Y0181962D02*
X0163962Y0181962D01*
X0164960Y0182960D02*
X0189200Y0182960D01*
X0189200Y0183959D02*
X0165959Y0183959D01*
X0166957Y0184957D02*
X0189200Y0184957D01*
X0189200Y0185956D02*
X0167956Y0185956D01*
X0168954Y0186954D02*
X0189200Y0186954D01*
X0189200Y0187953D02*
X0169953Y0187953D01*
X0170951Y0188951D02*
X0189200Y0188951D01*
X0189200Y0189950D02*
X0171950Y0189950D01*
X0172948Y0190948D02*
X0189200Y0190948D01*
X0189200Y0191947D02*
X0173947Y0191947D01*
X0174945Y0192945D02*
X0189200Y0192945D01*
X0189200Y0193944D02*
X0175944Y0193944D01*
X0176942Y0194942D02*
X0189200Y0194942D01*
X0189200Y0195941D02*
X0177200Y0195941D01*
X0177200Y0196939D02*
X0189200Y0196939D01*
X0189200Y0197938D02*
X0177200Y0197938D01*
X0177200Y0198937D02*
X0189200Y0198937D01*
X0189200Y0199935D02*
X0177200Y0199935D01*
X0177200Y0200934D02*
X0189200Y0200934D01*
X0189200Y0201932D02*
X0177200Y0201932D01*
X0177200Y0202931D02*
X0189200Y0202931D01*
X0189200Y0203929D02*
X0177200Y0203929D01*
X0177200Y0204928D02*
X0189200Y0204928D01*
X0189200Y0205926D02*
X0177200Y0205926D01*
X0177200Y0206925D02*
X0189200Y0206925D01*
X0189200Y0207923D02*
X0177200Y0207923D01*
X0177200Y0208922D02*
X0189922Y0208922D01*
X0190920Y0209920D02*
X0177200Y0209920D01*
X0177200Y0210919D02*
X0191919Y0210919D01*
X0192917Y0211917D02*
X0177200Y0211917D01*
X0177200Y0212916D02*
X0193916Y0212916D01*
X0194914Y0213914D02*
X0177200Y0213914D01*
X0177913Y0214913D02*
X0195913Y0214913D01*
X0196911Y0215911D02*
X0178911Y0215911D01*
X0179910Y0216910D02*
X0197910Y0216910D01*
X0198908Y0217908D02*
X0180908Y0217908D01*
X0181907Y0218907D02*
X0199907Y0218907D01*
X0200905Y0219905D02*
X0182905Y0219905D01*
X0183904Y0220904D02*
X0201904Y0220904D01*
X0202902Y0221902D02*
X0184902Y0221902D01*
X0185901Y0222901D02*
X0203901Y0222901D01*
X0204899Y0223899D02*
X0186899Y0223899D01*
X0187898Y0224898D02*
X0205898Y0224898D01*
X0206896Y0225896D02*
X0188896Y0225896D01*
X0189895Y0226895D02*
X0207895Y0226895D01*
X0208893Y0227893D02*
X0190893Y0227893D01*
X0191892Y0228892D02*
X0209892Y0228892D01*
X0210890Y0229890D02*
X0192890Y0229890D01*
X0193889Y0230889D02*
X0211889Y0230889D01*
X0212887Y0231887D02*
X0194887Y0231887D01*
X0195886Y0232886D02*
X0213886Y0232886D01*
X0214884Y0233884D02*
X0196884Y0233884D01*
X0197883Y0234883D02*
X0215883Y0234883D01*
X0216881Y0235881D02*
X0198881Y0235881D01*
X0199880Y0236880D02*
X0217880Y0236880D01*
X0218878Y0237878D02*
X0200878Y0237878D01*
X0201877Y0238877D02*
X0219877Y0238877D01*
X0220875Y0239875D02*
X0202875Y0239875D01*
X0203874Y0240874D02*
X0221874Y0240874D01*
X0222872Y0241872D02*
X0204872Y0241872D01*
X0205871Y0242871D02*
X0223871Y0242871D01*
X0224870Y0243870D02*
X0206870Y0243870D01*
X0207868Y0244868D02*
X0225868Y0244868D01*
X0226867Y0245867D02*
X0208867Y0245867D01*
X0209865Y0246865D02*
X0227200Y0246865D01*
X0227200Y0247864D02*
X0210864Y0247864D01*
X0211862Y0248862D02*
X0227200Y0248862D01*
X0227200Y0249861D02*
X0212861Y0249861D01*
X0213859Y0250859D02*
X0227200Y0250859D01*
X0227200Y0251858D02*
X0214858Y0251858D01*
X0215856Y0252856D02*
X0227200Y0252856D01*
X0227200Y0253855D02*
X0216855Y0253855D01*
X0217200Y0254853D02*
X0227200Y0254853D01*
X0227200Y0255852D02*
X0217200Y0255852D01*
X0217200Y0256850D02*
X0227200Y0256850D01*
X0227200Y0257849D02*
X0217200Y0257849D01*
X0217200Y0258847D02*
X0227200Y0258847D01*
X0227200Y0259846D02*
X0217200Y0259846D01*
X0217200Y0260844D02*
X0227200Y0260844D01*
X0227200Y0261843D02*
X0217200Y0261843D01*
X0217200Y0262841D02*
X0227200Y0262841D01*
X0227200Y0263840D02*
X0217200Y0263840D01*
X0217200Y0264838D02*
X0227200Y0264838D01*
X0227200Y0265837D02*
X0217200Y0265837D01*
X0217835Y0266835D02*
X0226565Y0266835D01*
X0225566Y0267834D02*
X0218834Y0267834D01*
X0239200Y0213200D02*
X0231200Y0205200D01*
X0231200Y0197200D01*
X0270200Y0158200D01*
X0278200Y0158200D01*
X0286200Y0166200D01*
X0286200Y0209200D01*
X0282200Y0213200D01*
X0239200Y0213200D01*
X0238916Y0212916D02*
X0282484Y0212916D01*
X0283483Y0211917D02*
X0237917Y0211917D01*
X0236919Y0210919D02*
X0284481Y0210919D01*
X0285480Y0209920D02*
X0235920Y0209920D01*
X0234922Y0208922D02*
X0286200Y0208922D01*
X0286200Y0207923D02*
X0233923Y0207923D01*
X0232925Y0206925D02*
X0286200Y0206925D01*
X0286200Y0205926D02*
X0231926Y0205926D01*
X0231200Y0204928D02*
X0286200Y0204928D01*
X0286200Y0203929D02*
X0231200Y0203929D01*
X0231200Y0202931D02*
X0286200Y0202931D01*
X0286200Y0201932D02*
X0231200Y0201932D01*
X0231200Y0200934D02*
X0286200Y0200934D01*
X0286200Y0199935D02*
X0231200Y0199935D01*
X0231200Y0198937D02*
X0286200Y0198937D01*
X0286200Y0197938D02*
X0231200Y0197938D01*
X0231461Y0196939D02*
X0286200Y0196939D01*
X0286200Y0195941D02*
X0232459Y0195941D01*
X0233458Y0194942D02*
X0286200Y0194942D01*
X0286200Y0193944D02*
X0234456Y0193944D01*
X0235455Y0192945D02*
X0286200Y0192945D01*
X0286200Y0191947D02*
X0236453Y0191947D01*
X0237452Y0190948D02*
X0286200Y0190948D01*
X0286200Y0189950D02*
X0238450Y0189950D01*
X0239449Y0188951D02*
X0286200Y0188951D01*
X0286200Y0187953D02*
X0240447Y0187953D01*
X0241446Y0186954D02*
X0286200Y0186954D01*
X0286200Y0185956D02*
X0242444Y0185956D01*
X0243443Y0184957D02*
X0286200Y0184957D01*
X0286200Y0183959D02*
X0244441Y0183959D01*
X0245440Y0182960D02*
X0286200Y0182960D01*
X0286200Y0181962D02*
X0246438Y0181962D01*
X0247437Y0180963D02*
X0286200Y0180963D01*
X0286200Y0179965D02*
X0248435Y0179965D01*
X0249434Y0178966D02*
X0286200Y0178966D01*
X0286200Y0177968D02*
X0250432Y0177968D01*
X0251431Y0176969D02*
X0286200Y0176969D01*
X0286200Y0175971D02*
X0252429Y0175971D01*
X0253428Y0174972D02*
X0286200Y0174972D01*
X0286200Y0173974D02*
X0254426Y0173974D01*
X0255425Y0172975D02*
X0286200Y0172975D01*
X0286200Y0171977D02*
X0256423Y0171977D01*
X0257422Y0170978D02*
X0286200Y0170978D01*
X0286200Y0169980D02*
X0258420Y0169980D01*
X0259419Y0168981D02*
X0286200Y0168981D01*
X0286200Y0167983D02*
X0260417Y0167983D01*
X0261416Y0166984D02*
X0286200Y0166984D01*
X0285986Y0165986D02*
X0262414Y0165986D01*
X0263413Y0164987D02*
X0284987Y0164987D01*
X0283989Y0163989D02*
X0264411Y0163989D01*
X0265410Y0162990D02*
X0282990Y0162990D01*
X0281992Y0161992D02*
X0266408Y0161992D01*
X0267407Y0160993D02*
X0280993Y0160993D01*
X0279995Y0159995D02*
X0268405Y0159995D01*
X0269404Y0158996D02*
X0278996Y0158996D01*
X0146200Y0146015D02*
X0129200Y0146015D01*
X0129200Y0145017D02*
X0146200Y0145017D01*
X0146200Y0144018D02*
X0129200Y0144018D01*
X0129200Y0143020D02*
X0146200Y0143020D01*
X0146200Y0142021D02*
X0129200Y0142021D01*
X0129200Y0141023D02*
X0146200Y0141023D01*
X0146200Y0140024D02*
X0129200Y0140024D01*
X0129200Y0139026D02*
X0146200Y0139026D01*
X0146200Y0138027D02*
X0129200Y0138027D01*
X0129200Y0137029D02*
X0146200Y0137029D01*
X0146200Y0136030D02*
X0129200Y0136030D01*
X0129200Y0135032D02*
X0146200Y0135032D01*
X0146200Y0134033D02*
X0129200Y0134033D01*
X0129200Y0133035D02*
X0146200Y0133035D01*
X0146200Y0132036D02*
X0129200Y0132036D01*
X0129200Y0131038D02*
X0146200Y0131038D01*
X0146200Y0130039D02*
X0129200Y0130039D01*
X0129200Y0129041D02*
X0146200Y0129041D01*
X0145386Y0147014D02*
X0128386Y0147014D01*
X0127388Y0148012D02*
X0144388Y0148012D01*
X0143389Y0149011D02*
X0126389Y0149011D01*
X0125391Y0150009D02*
X0142391Y0150009D01*
X0141392Y0151008D02*
X0124392Y0151008D01*
X0123394Y0152006D02*
X0140394Y0152006D01*
X0139395Y0153005D02*
X0122395Y0153005D01*
X0121397Y0154003D02*
X0138397Y0154003D01*
X0137398Y0155002D02*
X0120398Y0155002D01*
X0120200Y0156001D02*
X0136399Y0156001D01*
X0135401Y0156999D02*
X0120200Y0156999D01*
X0120200Y0157998D02*
X0134402Y0157998D01*
X0133404Y0158996D02*
X0120200Y0158996D01*
X0120995Y0159995D02*
X0132405Y0159995D01*
X0131407Y0160993D02*
X0121993Y0160993D01*
X0125200Y0173200D02*
X0123200Y0175200D01*
X0123200Y0227200D01*
X0113200Y0237200D01*
X0085200Y0237200D01*
X0077200Y0245200D01*
X0077200Y0264200D01*
X0079200Y0266200D01*
X0082200Y0266200D01*
X0084200Y0264200D01*
X0084200Y0245200D01*
X0087200Y0242200D01*
X0117200Y0242200D01*
X0131200Y0228200D01*
X0131200Y0175200D01*
X0129200Y0173200D01*
X0125200Y0173200D01*
X0124426Y0173974D02*
X0129974Y0173974D01*
X0130972Y0174972D02*
X0123428Y0174972D01*
X0123200Y0175971D02*
X0131200Y0175971D01*
X0131200Y0176969D02*
X0123200Y0176969D01*
X0123200Y0177968D02*
X0131200Y0177968D01*
X0131200Y0178966D02*
X0123200Y0178966D01*
X0123200Y0179965D02*
X0131200Y0179965D01*
X0131200Y0180963D02*
X0123200Y0180963D01*
X0123200Y0181962D02*
X0131200Y0181962D01*
X0131200Y0182960D02*
X0123200Y0182960D01*
X0123200Y0183959D02*
X0131200Y0183959D01*
X0131200Y0184957D02*
X0123200Y0184957D01*
X0123200Y0185956D02*
X0131200Y0185956D01*
X0131200Y0186954D02*
X0123200Y0186954D01*
X0123200Y0187953D02*
X0131200Y0187953D01*
X0131200Y0188951D02*
X0123200Y0188951D01*
X0123200Y0189950D02*
X0131200Y0189950D01*
X0131200Y0190948D02*
X0123200Y0190948D01*
X0123200Y0191947D02*
X0131200Y0191947D01*
X0131200Y0192945D02*
X0123200Y0192945D01*
X0123200Y0193944D02*
X0131200Y0193944D01*
X0131200Y0194942D02*
X0123200Y0194942D01*
X0123200Y0195941D02*
X0131200Y0195941D01*
X0131200Y0196939D02*
X0123200Y0196939D01*
X0123200Y0197938D02*
X0131200Y0197938D01*
X0131200Y0198937D02*
X0123200Y0198937D01*
X0123200Y0199935D02*
X0131200Y0199935D01*
X0131200Y0200934D02*
X0123200Y0200934D01*
X0123200Y0201932D02*
X0131200Y0201932D01*
X0131200Y0202931D02*
X0123200Y0202931D01*
X0123200Y0203929D02*
X0131200Y0203929D01*
X0131200Y0204928D02*
X0123200Y0204928D01*
X0123200Y0205926D02*
X0131200Y0205926D01*
X0131200Y0206925D02*
X0123200Y0206925D01*
X0123200Y0207923D02*
X0131200Y0207923D01*
X0131200Y0208922D02*
X0123200Y0208922D01*
X0123200Y0209920D02*
X0131200Y0209920D01*
X0131200Y0210919D02*
X0123200Y0210919D01*
X0123200Y0211917D02*
X0131200Y0211917D01*
X0131200Y0212916D02*
X0123200Y0212916D01*
X0123200Y0213914D02*
X0131200Y0213914D01*
X0131200Y0214913D02*
X0123200Y0214913D01*
X0123200Y0215911D02*
X0131200Y0215911D01*
X0131200Y0216910D02*
X0123200Y0216910D01*
X0123200Y0217908D02*
X0131200Y0217908D01*
X0131200Y0218907D02*
X0123200Y0218907D01*
X0123200Y0219905D02*
X0131200Y0219905D01*
X0131200Y0220904D02*
X0123200Y0220904D01*
X0123200Y0221902D02*
X0131200Y0221902D01*
X0131200Y0222901D02*
X0123200Y0222901D01*
X0123200Y0223899D02*
X0131200Y0223899D01*
X0131200Y0224898D02*
X0123200Y0224898D01*
X0123200Y0225896D02*
X0131200Y0225896D01*
X0131200Y0226895D02*
X0123200Y0226895D01*
X0122507Y0227893D02*
X0131200Y0227893D01*
X0130508Y0228892D02*
X0121508Y0228892D01*
X0120510Y0229890D02*
X0129510Y0229890D01*
X0128511Y0230889D02*
X0119511Y0230889D01*
X0118513Y0231887D02*
X0127513Y0231887D01*
X0126514Y0232886D02*
X0117514Y0232886D01*
X0116516Y0233884D02*
X0125516Y0233884D01*
X0124517Y0234883D02*
X0115517Y0234883D01*
X0114519Y0235881D02*
X0123519Y0235881D01*
X0122520Y0236880D02*
X0113520Y0236880D01*
X0117528Y0241872D02*
X0080528Y0241872D01*
X0081526Y0240874D02*
X0118526Y0240874D01*
X0119525Y0239875D02*
X0082525Y0239875D01*
X0083523Y0238877D02*
X0120523Y0238877D01*
X0121522Y0237878D02*
X0084522Y0237878D01*
X0086529Y0242871D02*
X0079529Y0242871D01*
X0078530Y0243870D02*
X0085530Y0243870D01*
X0084532Y0244868D02*
X0077532Y0244868D01*
X0077200Y0245867D02*
X0084200Y0245867D01*
X0084200Y0246865D02*
X0077200Y0246865D01*
X0077200Y0247864D02*
X0084200Y0247864D01*
X0084200Y0248862D02*
X0077200Y0248862D01*
X0077200Y0249861D02*
X0084200Y0249861D01*
X0084200Y0250859D02*
X0077200Y0250859D01*
X0077200Y0251858D02*
X0084200Y0251858D01*
X0084200Y0252856D02*
X0077200Y0252856D01*
X0077200Y0253855D02*
X0084200Y0253855D01*
X0084200Y0254853D02*
X0077200Y0254853D01*
X0077200Y0255852D02*
X0084200Y0255852D01*
X0084200Y0256850D02*
X0077200Y0256850D01*
X0077200Y0257849D02*
X0084200Y0257849D01*
X0084200Y0258847D02*
X0077200Y0258847D01*
X0077200Y0259846D02*
X0084200Y0259846D01*
X0084200Y0260844D02*
X0077200Y0260844D01*
X0077200Y0261843D02*
X0084200Y0261843D01*
X0084200Y0262841D02*
X0077200Y0262841D01*
X0077200Y0263840D02*
X0084200Y0263840D01*
X0083562Y0264838D02*
X0077838Y0264838D01*
X0078837Y0265837D02*
X0082563Y0265837D01*
X0104200Y0129200D02*
X0113200Y0129200D01*
X0116200Y0126200D01*
X0116200Y0115200D01*
X0099200Y0098200D01*
X0097200Y0098200D01*
X0093200Y0102200D01*
X0093200Y0118200D01*
X0104200Y0129200D01*
X0104041Y0129041D02*
X0113359Y0129041D01*
X0114358Y0128042D02*
X0103042Y0128042D01*
X0102044Y0127044D02*
X0115356Y0127044D01*
X0116200Y0126045D02*
X0101045Y0126045D01*
X0100047Y0125047D02*
X0116200Y0125047D01*
X0116200Y0124048D02*
X0099048Y0124048D01*
X0098050Y0123050D02*
X0116200Y0123050D01*
X0116200Y0122051D02*
X0097051Y0122051D01*
X0096053Y0121053D02*
X0116200Y0121053D01*
X0116200Y0120054D02*
X0095054Y0120054D01*
X0094056Y0119056D02*
X0116200Y0119056D01*
X0116200Y0118057D02*
X0093200Y0118057D01*
X0093200Y0117059D02*
X0116200Y0117059D01*
X0116200Y0116060D02*
X0093200Y0116060D01*
X0093200Y0115062D02*
X0116062Y0115062D01*
X0115063Y0114063D02*
X0093200Y0114063D01*
X0093200Y0113065D02*
X0114065Y0113065D01*
X0113066Y0112066D02*
X0093200Y0112066D01*
X0093200Y0111068D02*
X0112068Y0111068D01*
X0111069Y0110069D02*
X0093200Y0110069D01*
X0093200Y0109070D02*
X0110070Y0109070D01*
X0109072Y0108072D02*
X0093200Y0108072D01*
X0093200Y0107073D02*
X0108073Y0107073D01*
X0107075Y0106075D02*
X0093200Y0106075D01*
X0093200Y0105076D02*
X0106076Y0105076D01*
X0105078Y0104078D02*
X0093200Y0104078D01*
X0093200Y0103079D02*
X0104079Y0103079D01*
X0103081Y0102081D02*
X0093319Y0102081D01*
X0094318Y0101082D02*
X0102082Y0101082D01*
X0101084Y0100084D02*
X0095316Y0100084D01*
X0096315Y0099085D02*
X0100085Y0099085D01*
X0091200Y0050158D02*
X0083200Y0050158D01*
X0083200Y0049160D02*
X0091200Y0049160D01*
X0091200Y0048161D02*
X0083200Y0048161D01*
X0083200Y0047163D02*
X0091200Y0047163D01*
X0091200Y0046164D02*
X0083200Y0046164D01*
X0083200Y0045166D02*
X0091200Y0045166D01*
X0091200Y0044167D02*
X0083200Y0044167D01*
D20*
X0032400Y0056031D02*
X0032400Y0260369D01*
X0035436Y0257534D01*
X0040368Y0254978D01*
X0040368Y0254978D01*
X0045808Y0253848D01*
X0051350Y0254227D01*
X0051351Y0254227D01*
X0056585Y0256087D01*
X0056585Y0256087D01*
X0061124Y0259291D01*
X0064630Y0263600D01*
X0064630Y0263600D01*
X0066844Y0268696D01*
X0067600Y0274200D01*
X0066844Y0279704D01*
X0064630Y0284799D01*
X0064630Y0284800D01*
X0062270Y0287701D01*
X0262046Y0287701D01*
X0261375Y0287074D01*
X0258489Y0282327D01*
X0256990Y0276978D01*
X0256990Y0271422D01*
X0258489Y0266073D01*
X0258489Y0266073D01*
X0261375Y0261326D01*
X0261375Y0261326D01*
X0265436Y0257534D01*
X0270368Y0254978D01*
X0270368Y0254978D01*
X0275808Y0253848D01*
X0281350Y0254227D01*
X0281351Y0254227D01*
X0286585Y0256087D01*
X0286585Y0256087D01*
X0291124Y0259291D01*
X0291921Y0260271D01*
X0291921Y0056129D01*
X0291124Y0057109D01*
X0286585Y0060313D01*
X0281351Y0062173D01*
X0281350Y0062173D01*
X0275808Y0062552D01*
X0275808Y0062552D01*
X0270368Y0061422D01*
X0265436Y0058866D01*
X0265436Y0058866D01*
X0261375Y0055074D01*
X0258489Y0050327D01*
X0256990Y0044978D01*
X0256990Y0039422D01*
X0258489Y0034073D01*
X0258489Y0034073D01*
X0261375Y0029326D01*
X0261375Y0029326D01*
X0261376Y0029326D01*
X0263438Y0027400D01*
X0061213Y0027400D01*
X0064630Y0031600D01*
X0064630Y0031600D01*
X0066844Y0036696D01*
X0067600Y0042200D01*
X0066844Y0047704D01*
X0064630Y0052799D01*
X0064630Y0052800D01*
X0061124Y0057109D01*
X0056585Y0060313D01*
X0051351Y0062173D01*
X0051350Y0062173D01*
X0045808Y0062552D01*
X0045808Y0062552D01*
X0040368Y0061422D01*
X0035436Y0058866D01*
X0035436Y0058866D01*
X0032400Y0056031D01*
X0032400Y0058178D02*
X0034699Y0058178D01*
X0032400Y0060576D02*
X0038736Y0060576D01*
X0040368Y0061422D02*
X0040368Y0061422D01*
X0032400Y0062975D02*
X0083045Y0062975D01*
X0085444Y0065373D02*
X0032400Y0065373D01*
X0032400Y0067772D02*
X0087842Y0067772D01*
X0090241Y0070170D02*
X0032400Y0070170D01*
X0032400Y0072569D02*
X0092943Y0072569D01*
X0092424Y0072354D02*
X0094225Y0073100D01*
X0101170Y0073100D01*
X0102370Y0074300D01*
X0095225Y0074300D01*
X0094260Y0074700D01*
X0094093Y0074700D01*
X0093976Y0074818D01*
X0093424Y0075046D01*
X0092046Y0076424D01*
X0090046Y0078424D01*
X0089818Y0078976D01*
X0089700Y0079093D01*
X0089700Y0079260D01*
X0089300Y0080225D01*
X0089300Y0085175D01*
X0090046Y0086976D01*
X0091424Y0088354D01*
X0091424Y0088354D01*
X0096370Y0093300D01*
X0096225Y0093300D01*
X0094424Y0094046D01*
X0091424Y0097046D01*
X0089046Y0099424D01*
X0088300Y0101225D01*
X0088300Y0119175D01*
X0089046Y0120976D01*
X0100046Y0131976D01*
X0101424Y0133354D01*
X0103225Y0134100D01*
X0114175Y0134100D01*
X0115976Y0133354D01*
X0117200Y0132130D01*
X0117424Y0132354D01*
X0119225Y0133100D01*
X0124300Y0133100D01*
X0124300Y0144170D01*
X0117424Y0151046D01*
X0116046Y0152424D01*
X0115300Y0154225D01*
X0115300Y0160175D01*
X0116046Y0161976D01*
X0116942Y0162872D01*
X0115800Y0165629D01*
X0115800Y0168771D01*
X0117003Y0171675D01*
X0117028Y0171700D01*
X0117003Y0171725D01*
X0115800Y0174629D01*
X0115800Y0177771D01*
X0117003Y0180675D01*
X0118300Y0181972D01*
X0118300Y0225170D01*
X0115424Y0228046D01*
X0111170Y0232300D01*
X0084225Y0232300D01*
X0082424Y0233046D01*
X0074424Y0241046D01*
X0073046Y0242424D01*
X0072300Y0244225D01*
X0072300Y0253126D01*
X0072050Y0253729D01*
X0072050Y0265671D01*
X0073367Y0268850D01*
X0075800Y0271283D01*
X0078979Y0272600D01*
X0082421Y0272600D01*
X0085600Y0271283D01*
X0088033Y0268850D01*
X0089350Y0265671D01*
X0089350Y0253729D01*
X0089100Y0253126D01*
X0089100Y0247230D01*
X0089230Y0247100D01*
X0099755Y0247100D01*
X0097300Y0248117D01*
X0094867Y0250550D01*
X0093550Y0253729D01*
X0093550Y0265671D01*
X0094867Y0268850D01*
X0097300Y0271283D01*
X0100479Y0272600D01*
X0103921Y0272600D01*
X0107100Y0271283D01*
X0109533Y0268850D01*
X0110850Y0265671D01*
X0110850Y0253729D01*
X0109533Y0250550D01*
X0107100Y0248117D01*
X0104645Y0247100D01*
X0118175Y0247100D01*
X0119976Y0246354D01*
X0130976Y0235354D01*
X0133354Y0232976D01*
X0133354Y0232976D01*
X0133976Y0232354D01*
X0135354Y0230976D01*
X0136100Y0229175D01*
X0136100Y0181972D01*
X0137397Y0180675D01*
X0138600Y0177771D01*
X0138600Y0174629D01*
X0137397Y0171725D01*
X0137372Y0171700D01*
X0137397Y0171675D01*
X0138600Y0168771D01*
X0138600Y0165629D01*
X0137397Y0162725D01*
X0137372Y0162700D01*
X0137397Y0162675D01*
X0137922Y0161407D01*
X0144700Y0154630D01*
X0144700Y0160307D01*
X0149093Y0164700D01*
X0155307Y0164700D01*
X0158300Y0161707D01*
X0158300Y0182175D01*
X0159046Y0183976D01*
X0172300Y0197230D01*
X0172300Y0201693D01*
X0170307Y0199700D01*
X0164093Y0199700D01*
X0159700Y0204093D01*
X0159700Y0210307D01*
X0164093Y0214700D01*
X0170307Y0214700D01*
X0172300Y0212707D01*
X0172300Y0215175D01*
X0173046Y0216976D01*
X0177970Y0221900D01*
X0177200Y0221900D01*
X0177200Y0227200D01*
X0177200Y0227200D01*
X0177200Y0232500D01*
X0179395Y0232500D01*
X0182500Y0229395D01*
X0182500Y0227200D01*
X0177200Y0227200D01*
X0177200Y0227200D01*
X0177200Y0227200D01*
X0177200Y0227200D01*
X0171900Y0227200D01*
X0171900Y0229395D01*
X0175005Y0232500D01*
X0177200Y0232500D01*
X0177200Y0227200D01*
X0182500Y0227200D01*
X0182500Y0226430D01*
X0203188Y0247118D01*
X0202421Y0246800D01*
X0198979Y0246800D01*
X0195800Y0248117D01*
X0193367Y0250550D01*
X0192050Y0253729D01*
X0192050Y0265671D01*
X0193367Y0268850D01*
X0195800Y0271283D01*
X0198979Y0272600D01*
X0202421Y0272600D01*
X0205600Y0271283D01*
X0208033Y0268850D01*
X0209350Y0265671D01*
X0209350Y0253729D01*
X0209032Y0252962D01*
X0212300Y0256230D01*
X0212300Y0267175D01*
X0213046Y0268976D01*
X0215046Y0270976D01*
X0216424Y0272354D01*
X0218225Y0273100D01*
X0226175Y0273100D01*
X0227976Y0272354D01*
X0229976Y0270354D01*
X0231354Y0268976D01*
X0232100Y0267175D01*
X0232100Y0245225D01*
X0231354Y0243424D01*
X0194100Y0206170D01*
X0194100Y0164230D01*
X0216976Y0141354D01*
X0228800Y0129530D01*
X0228800Y0132200D01*
X0237200Y0132200D01*
X0237200Y0132200D01*
X0237200Y0140600D01*
X0240679Y0140600D01*
X0245600Y0135679D01*
X0245600Y0132200D01*
X0237200Y0132200D01*
X0237200Y0132200D01*
X0237200Y0132200D01*
X0237200Y0140600D01*
X0233721Y0140600D01*
X0228800Y0135679D01*
X0228800Y0132200D01*
X0237200Y0132200D01*
X0245600Y0132200D01*
X0245600Y0128721D01*
X0240679Y0123800D01*
X0237200Y0123800D01*
X0237200Y0132200D01*
X0237200Y0132200D01*
X0237200Y0123800D01*
X0233841Y0123800D01*
X0234100Y0123175D01*
X0234100Y0098230D01*
X0241230Y0091100D01*
X0259175Y0091100D01*
X0260976Y0090354D01*
X0263976Y0087354D01*
X0265354Y0085976D01*
X0266100Y0084175D01*
X0266100Y0078225D01*
X0265354Y0076424D01*
X0264354Y0075424D01*
X0262354Y0073424D01*
X0260976Y0072046D01*
X0259175Y0071300D01*
X0234230Y0071300D01*
X0227100Y0064170D01*
X0227100Y0040225D01*
X0226354Y0038424D01*
X0223354Y0035424D01*
X0221976Y0034046D01*
X0220175Y0033300D01*
X0214225Y0033300D01*
X0212424Y0034046D01*
X0208046Y0038424D01*
X0207300Y0040225D01*
X0207300Y0110170D01*
X0195424Y0122046D01*
X0169170Y0148300D01*
X0165225Y0148300D01*
X0163424Y0149046D01*
X0160424Y0152046D01*
X0159046Y0153424D01*
X0159042Y0153435D01*
X0155307Y0149700D01*
X0149630Y0149700D01*
X0150354Y0148976D01*
X0151100Y0147175D01*
X0151100Y0099225D01*
X0150354Y0097424D01*
X0146976Y0094046D01*
X0145175Y0093300D01*
X0139225Y0093300D01*
X0137424Y0094046D01*
X0136100Y0095370D01*
X0136100Y0080225D01*
X0135354Y0078424D01*
X0133976Y0077046D01*
X0131976Y0075046D01*
X0130175Y0074300D01*
X0122048Y0074300D01*
X0122100Y0074175D01*
X0122100Y0069225D01*
X0121354Y0067424D01*
X0118354Y0064424D01*
X0114354Y0060424D01*
X0112976Y0059046D01*
X0111175Y0058300D01*
X0104230Y0058300D01*
X0096354Y0050424D01*
X0096100Y0050170D01*
X0096100Y0042225D01*
X0095800Y0041501D01*
X0095800Y0041409D01*
X0094506Y0038285D01*
X0092115Y0035894D01*
X0088991Y0034600D01*
X0085609Y0034600D01*
X0082485Y0035894D01*
X0080094Y0038285D01*
X0079322Y0040148D01*
X0079046Y0040424D01*
X0078300Y0042225D01*
X0078300Y0057175D01*
X0079046Y0058976D01*
X0080424Y0060354D01*
X0080424Y0060354D01*
X0091046Y0070976D01*
X0091046Y0070976D01*
X0092424Y0072354D01*
X0093614Y0074967D02*
X0032400Y0074967D01*
X0032400Y0077366D02*
X0044539Y0077366D01*
X0045005Y0076900D02*
X0041900Y0080005D01*
X0041900Y0082200D01*
X0047200Y0082200D01*
X0052500Y0082200D01*
X0052500Y0084395D01*
X0049395Y0087500D01*
X0047200Y0087500D01*
X0047200Y0082200D01*
X0047200Y0082200D01*
X0047200Y0082200D01*
X0052500Y0082200D01*
X0052500Y0080005D01*
X0049395Y0076900D01*
X0047200Y0076900D01*
X0047200Y0082200D01*
X0047200Y0082200D01*
X0047200Y0082200D01*
X0047200Y0087500D01*
X0045005Y0087500D01*
X0041900Y0084395D01*
X0041900Y0082200D01*
X0047200Y0082200D01*
X0047200Y0076900D01*
X0045005Y0076900D01*
X0047200Y0077366D02*
X0047200Y0077366D01*
X0047200Y0079764D02*
X0047200Y0079764D01*
X0047200Y0082163D02*
X0047200Y0082163D01*
X0047200Y0084561D02*
X0047200Y0084561D01*
X0047200Y0086960D02*
X0047200Y0086960D01*
X0049936Y0086960D02*
X0090039Y0086960D01*
X0089300Y0084561D02*
X0052334Y0084561D01*
X0052500Y0082163D02*
X0089300Y0082163D01*
X0089491Y0079764D02*
X0052260Y0079764D01*
X0049861Y0077366D02*
X0091105Y0077366D01*
X0092429Y0089358D02*
X0032400Y0089358D01*
X0032400Y0086960D02*
X0044464Y0086960D01*
X0042066Y0084561D02*
X0032400Y0084561D01*
X0032400Y0082163D02*
X0041900Y0082163D01*
X0042140Y0079764D02*
X0032400Y0079764D01*
X0032400Y0091757D02*
X0094827Y0091757D01*
X0094315Y0094155D02*
X0032400Y0094155D01*
X0032400Y0096554D02*
X0042240Y0096554D01*
X0044093Y0094700D02*
X0050307Y0094700D01*
X0054700Y0099093D01*
X0054700Y0105307D01*
X0050307Y0109700D01*
X0044093Y0109700D01*
X0039700Y0105307D01*
X0039700Y0099093D01*
X0044093Y0094700D01*
X0039841Y0098952D02*
X0032400Y0098952D01*
X0032400Y0101351D02*
X0039700Y0101351D01*
X0039700Y0103749D02*
X0032400Y0103749D01*
X0032400Y0106148D02*
X0040541Y0106148D01*
X0042940Y0108546D02*
X0032400Y0108546D01*
X0032400Y0110945D02*
X0088300Y0110945D01*
X0088300Y0113343D02*
X0032400Y0113343D01*
X0032400Y0115742D02*
X0088300Y0115742D01*
X0088300Y0118140D02*
X0032400Y0118140D01*
X0032400Y0120539D02*
X0088865Y0120539D01*
X0091008Y0122937D02*
X0032400Y0122937D01*
X0032400Y0125336D02*
X0093406Y0125336D01*
X0095805Y0127734D02*
X0032400Y0127734D01*
X0032400Y0130133D02*
X0057532Y0130133D01*
X0058698Y0129650D02*
X0061702Y0129650D01*
X0064477Y0130799D01*
X0066601Y0132923D01*
X0067750Y0135698D01*
X0067750Y0138702D01*
X0066601Y0141477D01*
X0064477Y0143601D01*
X0061702Y0144750D01*
X0058698Y0144750D01*
X0055923Y0143601D01*
X0053799Y0141477D01*
X0052650Y0138702D01*
X0052650Y0135698D01*
X0053799Y0132923D01*
X0055923Y0130799D01*
X0058698Y0129650D01*
X0062868Y0130133D02*
X0098203Y0130133D01*
X0100602Y0132532D02*
X0077098Y0132532D01*
X0076416Y0131850D02*
X0079550Y0134984D01*
X0079550Y0137200D01*
X0079550Y0139416D01*
X0076416Y0142550D01*
X0074200Y0142550D01*
X0074200Y0137200D01*
X0079550Y0137200D01*
X0074200Y0137200D01*
X0074200Y0137200D01*
X0074200Y0137200D01*
X0074200Y0131850D01*
X0076416Y0131850D01*
X0074200Y0131850D02*
X0074200Y0137200D01*
X0074200Y0137200D01*
X0074200Y0137200D01*
X0068850Y0137200D01*
X0068850Y0139416D01*
X0071984Y0142550D01*
X0074200Y0142550D01*
X0074200Y0137200D01*
X0068850Y0137200D01*
X0068850Y0134984D01*
X0071984Y0131850D01*
X0074200Y0131850D01*
X0074200Y0132532D02*
X0074200Y0132532D01*
X0074200Y0134930D02*
X0074200Y0134930D01*
X0074200Y0137329D02*
X0074200Y0137329D01*
X0074200Y0139727D02*
X0074200Y0139727D01*
X0074200Y0142126D02*
X0074200Y0142126D01*
X0076840Y0142126D02*
X0124300Y0142126D01*
X0124300Y0139727D02*
X0079239Y0139727D01*
X0079550Y0137329D02*
X0124300Y0137329D01*
X0124300Y0134930D02*
X0079496Y0134930D01*
X0071302Y0132532D02*
X0066209Y0132532D01*
X0067432Y0134930D02*
X0068904Y0134930D01*
X0068850Y0137329D02*
X0067750Y0137329D01*
X0067325Y0139727D02*
X0069161Y0139727D01*
X0071560Y0142126D02*
X0065952Y0142126D01*
X0062247Y0144524D02*
X0123946Y0144524D01*
X0121548Y0146923D02*
X0032400Y0146923D01*
X0032400Y0149321D02*
X0119149Y0149321D01*
X0116751Y0151720D02*
X0032400Y0151720D01*
X0032400Y0154118D02*
X0115344Y0154118D01*
X0115300Y0156517D02*
X0032400Y0156517D01*
X0032400Y0158915D02*
X0115300Y0158915D01*
X0115772Y0161314D02*
X0101920Y0161314D01*
X0100307Y0159700D02*
X0104700Y0164093D01*
X0104700Y0170307D01*
X0100307Y0174700D01*
X0094093Y0174700D01*
X0089700Y0170307D01*
X0089700Y0164093D01*
X0094093Y0159700D01*
X0100307Y0159700D01*
X0104319Y0163712D02*
X0116594Y0163712D01*
X0115800Y0166111D02*
X0104700Y0166111D01*
X0104700Y0168509D02*
X0115800Y0168509D01*
X0116685Y0170908D02*
X0104099Y0170908D01*
X0101700Y0173306D02*
X0116348Y0173306D01*
X0115800Y0175705D02*
X0032400Y0175705D01*
X0032400Y0178103D02*
X0115937Y0178103D01*
X0116931Y0180502D02*
X0032400Y0180502D01*
X0032400Y0182900D02*
X0118300Y0182900D01*
X0118300Y0185299D02*
X0032400Y0185299D01*
X0032400Y0187697D02*
X0118300Y0187697D01*
X0118300Y0190096D02*
X0032400Y0190096D01*
X0032400Y0192494D02*
X0051915Y0192494D01*
X0052809Y0191600D02*
X0061591Y0191600D01*
X0067800Y0197809D01*
X0067800Y0206591D01*
X0061591Y0212800D01*
X0052809Y0212800D01*
X0046600Y0206591D01*
X0046600Y0197809D01*
X0052809Y0191600D01*
X0049517Y0194893D02*
X0032400Y0194893D01*
X0032400Y0197291D02*
X0047118Y0197291D01*
X0046600Y0199690D02*
X0032400Y0199690D01*
X0032400Y0202088D02*
X0046600Y0202088D01*
X0046600Y0204487D02*
X0032400Y0204487D01*
X0032400Y0206885D02*
X0046895Y0206885D01*
X0049293Y0209284D02*
X0032400Y0209284D01*
X0032400Y0211682D02*
X0051692Y0211682D01*
X0062708Y0211682D02*
X0082424Y0211682D01*
X0083109Y0212078D02*
X0080691Y0210682D01*
X0078718Y0208709D01*
X0077322Y0206291D01*
X0076600Y0203596D01*
X0076600Y0200804D01*
X0077322Y0198109D01*
X0078718Y0195691D01*
X0080691Y0193718D01*
X0083109Y0192322D01*
X0085804Y0191600D01*
X0088596Y0191600D01*
X0091291Y0192322D01*
X0093709Y0193718D01*
X0095682Y0195691D01*
X0097078Y0198109D01*
X0097800Y0200804D01*
X0097800Y0203596D01*
X0097078Y0206291D01*
X0095682Y0208709D01*
X0093709Y0210682D01*
X0091291Y0212078D01*
X0088596Y0212800D01*
X0085804Y0212800D01*
X0083109Y0212078D01*
X0079293Y0209284D02*
X0065107Y0209284D01*
X0067505Y0206885D02*
X0077665Y0206885D01*
X0076839Y0204487D02*
X0067800Y0204487D01*
X0067800Y0202088D02*
X0076600Y0202088D01*
X0076899Y0199690D02*
X0067800Y0199690D01*
X0067282Y0197291D02*
X0077794Y0197291D01*
X0079517Y0194893D02*
X0064883Y0194893D01*
X0062485Y0192494D02*
X0082811Y0192494D01*
X0091589Y0192494D02*
X0118300Y0192494D01*
X0118300Y0194893D02*
X0094883Y0194893D01*
X0096606Y0197291D02*
X0118300Y0197291D01*
X0118300Y0199690D02*
X0097501Y0199690D01*
X0097800Y0202088D02*
X0118300Y0202088D01*
X0118300Y0204487D02*
X0097561Y0204487D01*
X0096735Y0206885D02*
X0118300Y0206885D01*
X0118300Y0209284D02*
X0095107Y0209284D01*
X0091976Y0211682D02*
X0118300Y0211682D01*
X0118300Y0214081D02*
X0032400Y0214081D01*
X0032400Y0216479D02*
X0118300Y0216479D01*
X0118300Y0218878D02*
X0032400Y0218878D01*
X0032400Y0221276D02*
X0118300Y0221276D01*
X0118300Y0223675D02*
X0032400Y0223675D01*
X0032400Y0226073D02*
X0117397Y0226073D01*
X0114998Y0228472D02*
X0032400Y0228472D01*
X0032400Y0230870D02*
X0112600Y0230870D01*
X0123467Y0242863D02*
X0198933Y0242863D01*
X0196535Y0240465D02*
X0125865Y0240465D01*
X0128264Y0238066D02*
X0194136Y0238066D01*
X0191738Y0235668D02*
X0130662Y0235668D01*
X0133061Y0233269D02*
X0189339Y0233269D01*
X0186941Y0230870D02*
X0181025Y0230870D01*
X0182500Y0228472D02*
X0184542Y0228472D01*
X0177200Y0228472D02*
X0177200Y0228472D01*
X0177200Y0227200D02*
X0171900Y0227200D01*
X0171900Y0225005D01*
X0175005Y0221900D01*
X0177200Y0221900D01*
X0177200Y0227200D01*
X0177200Y0226073D02*
X0177200Y0226073D01*
X0177200Y0223675D02*
X0177200Y0223675D01*
X0177347Y0221276D02*
X0136100Y0221276D01*
X0136100Y0218878D02*
X0174948Y0218878D01*
X0172840Y0216479D02*
X0136100Y0216479D01*
X0136100Y0214081D02*
X0148474Y0214081D01*
X0149093Y0214700D02*
X0144700Y0210307D01*
X0144700Y0204093D01*
X0149093Y0199700D01*
X0155307Y0199700D01*
X0159700Y0204093D01*
X0159700Y0210307D01*
X0155307Y0214700D01*
X0149093Y0214700D01*
X0146076Y0211682D02*
X0136100Y0211682D01*
X0136100Y0209284D02*
X0144700Y0209284D01*
X0144700Y0206885D02*
X0136100Y0206885D01*
X0136100Y0204487D02*
X0144700Y0204487D01*
X0146705Y0202088D02*
X0136100Y0202088D01*
X0136100Y0199690D02*
X0172300Y0199690D01*
X0172300Y0197291D02*
X0136100Y0197291D01*
X0136100Y0194893D02*
X0169963Y0194893D01*
X0167565Y0192494D02*
X0136100Y0192494D01*
X0136100Y0190096D02*
X0165166Y0190096D01*
X0162768Y0187697D02*
X0136100Y0187697D01*
X0136100Y0185299D02*
X0160369Y0185299D01*
X0158601Y0182900D02*
X0136100Y0182900D01*
X0137469Y0180502D02*
X0158300Y0180502D01*
X0158300Y0178103D02*
X0138463Y0178103D01*
X0138600Y0175705D02*
X0158300Y0175705D01*
X0158300Y0173306D02*
X0138052Y0173306D01*
X0137715Y0170908D02*
X0158300Y0170908D01*
X0158300Y0168509D02*
X0138600Y0168509D01*
X0138600Y0166111D02*
X0158300Y0166111D01*
X0158300Y0163712D02*
X0156294Y0163712D01*
X0148106Y0163712D02*
X0137806Y0163712D01*
X0138016Y0161314D02*
X0145707Y0161314D01*
X0144700Y0158915D02*
X0140414Y0158915D01*
X0142813Y0156517D02*
X0144700Y0156517D01*
X0150009Y0149321D02*
X0163149Y0149321D01*
X0160751Y0151720D02*
X0157326Y0151720D01*
X0151100Y0146923D02*
X0170548Y0146923D01*
X0172946Y0144524D02*
X0151100Y0144524D01*
X0151100Y0142126D02*
X0175345Y0142126D01*
X0177743Y0139727D02*
X0151100Y0139727D01*
X0151100Y0137329D02*
X0180142Y0137329D01*
X0182540Y0134930D02*
X0151100Y0134930D01*
X0151100Y0132532D02*
X0184939Y0132532D01*
X0187337Y0130133D02*
X0151100Y0130133D01*
X0151100Y0127734D02*
X0189736Y0127734D01*
X0192134Y0125336D02*
X0151100Y0125336D01*
X0151100Y0122937D02*
X0194533Y0122937D01*
X0196931Y0120539D02*
X0151100Y0120539D01*
X0151100Y0118140D02*
X0199330Y0118140D01*
X0201728Y0115742D02*
X0151100Y0115742D01*
X0151100Y0113343D02*
X0204127Y0113343D01*
X0206525Y0110945D02*
X0151100Y0110945D01*
X0151100Y0108546D02*
X0207300Y0108546D01*
X0207300Y0106148D02*
X0195747Y0106148D01*
X0194395Y0107500D02*
X0197500Y0104395D01*
X0197500Y0102200D01*
X0192200Y0102200D01*
X0192200Y0102200D01*
X0192200Y0102200D01*
X0192200Y0107500D01*
X0194395Y0107500D01*
X0192200Y0107500D02*
X0190005Y0107500D01*
X0186900Y0104395D01*
X0186900Y0102200D01*
X0192200Y0102200D01*
X0197500Y0102200D01*
X0197500Y0100005D01*
X0194395Y0096900D01*
X0192200Y0096900D01*
X0192200Y0102200D01*
X0192200Y0102200D01*
X0192200Y0102200D01*
X0192200Y0107500D01*
X0192200Y0106148D02*
X0192200Y0106148D01*
X0192200Y0103749D02*
X0192200Y0103749D01*
X0192200Y0102200D02*
X0186900Y0102200D01*
X0186900Y0100005D01*
X0190005Y0096900D01*
X0192200Y0096900D01*
X0192200Y0102200D01*
X0192200Y0101351D02*
X0192200Y0101351D01*
X0192200Y0098952D02*
X0192200Y0098952D01*
X0196448Y0098952D02*
X0207300Y0098952D01*
X0207300Y0096554D02*
X0149483Y0096554D01*
X0150987Y0098952D02*
X0187952Y0098952D01*
X0186900Y0101351D02*
X0151100Y0101351D01*
X0151100Y0103749D02*
X0186900Y0103749D01*
X0188653Y0106148D02*
X0151100Y0106148D01*
X0147085Y0094155D02*
X0207300Y0094155D01*
X0207300Y0091757D02*
X0136100Y0091757D01*
X0136100Y0094155D02*
X0137315Y0094155D01*
X0136100Y0089358D02*
X0153429Y0089358D01*
X0153046Y0088976D02*
X0154424Y0090354D01*
X0156225Y0091100D01*
X0195175Y0091100D01*
X0196976Y0090354D01*
X0198976Y0088354D01*
X0200354Y0086976D01*
X0201100Y0085175D01*
X0201100Y0075225D01*
X0200354Y0073424D01*
X0179354Y0052424D01*
X0177976Y0051046D01*
X0176175Y0050300D01*
X0174666Y0050300D01*
X0177550Y0047416D01*
X0177550Y0045200D01*
X0172200Y0045200D01*
X0172200Y0045200D01*
X0172200Y0045200D01*
X0166850Y0045200D01*
X0166850Y0047416D01*
X0169734Y0050300D01*
X0141225Y0050300D01*
X0139424Y0051046D01*
X0135046Y0055424D01*
X0135046Y0055424D01*
X0134046Y0056424D01*
X0133300Y0058225D01*
X0133300Y0068175D01*
X0134046Y0069976D01*
X0153046Y0088976D01*
X0151030Y0086960D02*
X0136100Y0086960D01*
X0136100Y0084561D02*
X0148632Y0084561D01*
X0146233Y0082163D02*
X0136100Y0082163D01*
X0135909Y0079764D02*
X0143835Y0079764D01*
X0141436Y0077366D02*
X0134295Y0077366D01*
X0131786Y0074967D02*
X0139038Y0074967D01*
X0136639Y0072569D02*
X0122100Y0072569D01*
X0122100Y0070170D02*
X0134241Y0070170D01*
X0133300Y0067772D02*
X0121498Y0067772D01*
X0119303Y0065373D02*
X0133300Y0065373D01*
X0133300Y0062975D02*
X0116904Y0062975D01*
X0114506Y0060576D02*
X0133300Y0060576D01*
X0133320Y0058178D02*
X0104107Y0058178D01*
X0104682Y0057138D02*
X0103798Y0056688D01*
X0102996Y0056105D01*
X0102295Y0055404D01*
X0101712Y0054602D01*
X0101262Y0053718D01*
X0100955Y0052775D01*
X0100800Y0051796D01*
X0100800Y0047300D01*
X0107000Y0047300D01*
X0107000Y0057600D01*
X0106604Y0057600D01*
X0105625Y0057445D01*
X0104682Y0057138D01*
X0102670Y0055779D02*
X0101709Y0055779D01*
X0101152Y0053381D02*
X0099310Y0053381D01*
X0100800Y0050982D02*
X0096912Y0050982D01*
X0096100Y0048584D02*
X0100800Y0048584D01*
X0100800Y0047100D02*
X0100800Y0042604D01*
X0100955Y0041625D01*
X0101262Y0040682D01*
X0101712Y0039798D01*
X0102295Y0038996D01*
X0102996Y0038295D01*
X0103798Y0037712D01*
X0104682Y0037262D01*
X0105625Y0036955D01*
X0106604Y0036800D01*
X0107000Y0036800D01*
X0107000Y0047100D01*
X0107200Y0047100D01*
X0107200Y0047300D01*
X0113400Y0047300D01*
X0113400Y0051796D01*
X0113245Y0052775D01*
X0112938Y0053718D01*
X0112488Y0054602D01*
X0111905Y0055404D01*
X0111204Y0056105D01*
X0110402Y0056688D01*
X0109518Y0057138D01*
X0108575Y0057445D01*
X0107596Y0057600D01*
X0107200Y0057600D01*
X0107200Y0047300D01*
X0107000Y0047300D01*
X0107000Y0047100D01*
X0100800Y0047100D01*
X0100800Y0046185D02*
X0096100Y0046185D01*
X0096100Y0043787D02*
X0100800Y0043787D01*
X0101032Y0041388D02*
X0095791Y0041388D01*
X0094798Y0038990D02*
X0102301Y0038990D01*
X0107000Y0038990D02*
X0107200Y0038990D01*
X0107200Y0036800D02*
X0107596Y0036800D01*
X0108575Y0036955D01*
X0109518Y0037262D01*
X0110402Y0037712D01*
X0111204Y0038295D01*
X0111905Y0038996D01*
X0112488Y0039798D01*
X0112938Y0040682D01*
X0113245Y0041625D01*
X0113400Y0042604D01*
X0113400Y0047100D01*
X0107200Y0047100D01*
X0107200Y0036800D01*
X0107200Y0041388D02*
X0107000Y0041388D01*
X0107000Y0043787D02*
X0107200Y0043787D01*
X0107200Y0046185D02*
X0107000Y0046185D01*
X0107000Y0048584D02*
X0107200Y0048584D01*
X0107200Y0050982D02*
X0107000Y0050982D01*
X0107000Y0053381D02*
X0107200Y0053381D01*
X0107200Y0055779D02*
X0107000Y0055779D01*
X0111530Y0055779D02*
X0134691Y0055779D01*
X0137090Y0053381D02*
X0113048Y0053381D01*
X0113400Y0050982D02*
X0139578Y0050982D01*
X0140005Y0047500D02*
X0136900Y0044395D01*
X0136900Y0042200D01*
X0142200Y0042200D01*
X0142200Y0042200D01*
X0142200Y0047500D01*
X0144395Y0047500D01*
X0147500Y0044395D01*
X0147500Y0042200D01*
X0142200Y0042200D01*
X0142200Y0042200D01*
X0142200Y0042200D01*
X0142200Y0047500D01*
X0140005Y0047500D01*
X0138690Y0046185D02*
X0113400Y0046185D01*
X0113400Y0043787D02*
X0136900Y0043787D01*
X0136900Y0042200D02*
X0136900Y0040005D01*
X0140005Y0036900D01*
X0142200Y0036900D01*
X0144395Y0036900D01*
X0147500Y0040005D01*
X0147500Y0042200D01*
X0142200Y0042200D01*
X0142200Y0036900D01*
X0142200Y0042200D01*
X0142200Y0042200D01*
X0136900Y0042200D01*
X0136900Y0041388D02*
X0113168Y0041388D01*
X0111899Y0038990D02*
X0137915Y0038990D01*
X0142200Y0038990D02*
X0142200Y0038990D01*
X0142200Y0041388D02*
X0142200Y0041388D01*
X0142200Y0043787D02*
X0142200Y0043787D01*
X0142200Y0046185D02*
X0142200Y0046185D01*
X0145710Y0046185D02*
X0166850Y0046185D01*
X0166850Y0045200D02*
X0166850Y0042984D01*
X0169984Y0039850D01*
X0172200Y0039850D01*
X0174416Y0039850D01*
X0177550Y0042984D01*
X0177550Y0045200D01*
X0172200Y0045200D01*
X0172200Y0039850D01*
X0172200Y0045200D01*
X0172200Y0045200D01*
X0166850Y0045200D01*
X0166850Y0043787D02*
X0147500Y0043787D01*
X0147500Y0041388D02*
X0168446Y0041388D01*
X0172200Y0041388D02*
X0172200Y0041388D01*
X0172200Y0043787D02*
X0172200Y0043787D01*
X0175954Y0041388D02*
X0207300Y0041388D01*
X0207300Y0043787D02*
X0177550Y0043787D01*
X0177550Y0046185D02*
X0207300Y0046185D01*
X0207300Y0048584D02*
X0176382Y0048584D01*
X0177821Y0050982D02*
X0207300Y0050982D01*
X0207300Y0053381D02*
X0180310Y0053381D01*
X0182709Y0055779D02*
X0207300Y0055779D01*
X0207300Y0058178D02*
X0185107Y0058178D01*
X0187506Y0060576D02*
X0207300Y0060576D01*
X0207300Y0062975D02*
X0189904Y0062975D01*
X0192303Y0065373D02*
X0207300Y0065373D01*
X0207300Y0067772D02*
X0194701Y0067772D01*
X0197100Y0070170D02*
X0207300Y0070170D01*
X0207300Y0072569D02*
X0199498Y0072569D01*
X0200993Y0074967D02*
X0207300Y0074967D01*
X0207300Y0077366D02*
X0201100Y0077366D01*
X0201100Y0079764D02*
X0207300Y0079764D01*
X0207300Y0082163D02*
X0201100Y0082163D01*
X0201100Y0084561D02*
X0207300Y0084561D01*
X0207300Y0086960D02*
X0200361Y0086960D01*
X0197971Y0089358D02*
X0207300Y0089358D01*
X0207300Y0101351D02*
X0197500Y0101351D01*
X0197500Y0103749D02*
X0207300Y0103749D01*
X0228197Y0130133D02*
X0228800Y0130133D01*
X0228800Y0132532D02*
X0225798Y0132532D01*
X0223400Y0134930D02*
X0228800Y0134930D01*
X0230449Y0137329D02*
X0221001Y0137329D01*
X0218603Y0139727D02*
X0232848Y0139727D01*
X0237200Y0139727D02*
X0237200Y0139727D01*
X0237200Y0137329D02*
X0237200Y0137329D01*
X0237200Y0134930D02*
X0237200Y0134930D01*
X0237200Y0132532D02*
X0237200Y0132532D01*
X0237200Y0130133D02*
X0237200Y0130133D01*
X0237200Y0127734D02*
X0237200Y0127734D01*
X0237200Y0125336D02*
X0237200Y0125336D01*
X0234100Y0122937D02*
X0257331Y0122937D01*
X0259093Y0124700D02*
X0254700Y0120307D01*
X0254700Y0114093D01*
X0259093Y0109700D01*
X0265307Y0109700D01*
X0269700Y0114093D01*
X0269700Y0120307D01*
X0265307Y0124700D01*
X0259093Y0124700D01*
X0265307Y0124700D01*
X0269700Y0129093D01*
X0269700Y0135307D01*
X0265307Y0139700D01*
X0259093Y0139700D01*
X0254700Y0135307D01*
X0254700Y0129093D01*
X0259093Y0124700D01*
X0258457Y0125336D02*
X0242215Y0125336D01*
X0244614Y0127734D02*
X0256059Y0127734D01*
X0254700Y0130133D02*
X0245600Y0130133D01*
X0245600Y0132532D02*
X0254700Y0132532D01*
X0254700Y0134930D02*
X0245600Y0134930D01*
X0243951Y0137329D02*
X0256722Y0137329D01*
X0267678Y0137329D02*
X0291921Y0137329D01*
X0291921Y0139727D02*
X0241552Y0139727D01*
X0234100Y0120539D02*
X0254932Y0120539D01*
X0254700Y0118140D02*
X0234100Y0118140D01*
X0234100Y0115742D02*
X0254700Y0115742D01*
X0255450Y0113343D02*
X0234100Y0113343D01*
X0234100Y0110945D02*
X0257848Y0110945D01*
X0266552Y0110945D02*
X0271900Y0110945D01*
X0271900Y0110005D02*
X0275005Y0106900D01*
X0277200Y0106900D01*
X0279395Y0106900D01*
X0282500Y0110005D01*
X0282500Y0112200D01*
X0282500Y0114395D01*
X0279395Y0117500D01*
X0277200Y0117500D01*
X0277200Y0112200D01*
X0277200Y0112200D01*
X0282500Y0112200D01*
X0277200Y0112200D01*
X0277200Y0112200D01*
X0277200Y0112200D01*
X0271900Y0112200D01*
X0271900Y0114395D01*
X0275005Y0117500D01*
X0277200Y0117500D01*
X0277200Y0112200D01*
X0277200Y0106900D01*
X0277200Y0112200D01*
X0277200Y0112200D01*
X0271900Y0112200D01*
X0271900Y0110005D01*
X0273358Y0108546D02*
X0234100Y0108546D01*
X0234100Y0106148D02*
X0291921Y0106148D01*
X0291921Y0108546D02*
X0281042Y0108546D01*
X0282500Y0110945D02*
X0291921Y0110945D01*
X0291921Y0113343D02*
X0282500Y0113343D01*
X0281153Y0115742D02*
X0291921Y0115742D01*
X0291921Y0118140D02*
X0269700Y0118140D01*
X0269700Y0115742D02*
X0273247Y0115742D01*
X0271900Y0113343D02*
X0268950Y0113343D01*
X0269468Y0120539D02*
X0291921Y0120539D01*
X0291921Y0122937D02*
X0267069Y0122937D01*
X0265943Y0125336D02*
X0291921Y0125336D01*
X0291921Y0127734D02*
X0268341Y0127734D01*
X0269700Y0130133D02*
X0291921Y0130133D01*
X0291921Y0132532D02*
X0269700Y0132532D01*
X0269700Y0134930D02*
X0291921Y0134930D01*
X0291921Y0142126D02*
X0216204Y0142126D01*
X0213806Y0144524D02*
X0291921Y0144524D01*
X0291921Y0146923D02*
X0211407Y0146923D01*
X0209009Y0149321D02*
X0291921Y0149321D01*
X0291921Y0151720D02*
X0206610Y0151720D01*
X0204212Y0154118D02*
X0267352Y0154118D01*
X0267424Y0154046D02*
X0269225Y0153300D01*
X0271175Y0153300D01*
X0277225Y0153300D01*
X0279175Y0153300D01*
X0280976Y0154046D01*
X0290354Y0163424D01*
X0291100Y0165225D01*
X0291100Y0210175D01*
X0290354Y0211976D01*
X0288976Y0213354D01*
X0284976Y0217354D01*
X0283175Y0218100D01*
X0238225Y0218100D01*
X0236424Y0217354D01*
X0235046Y0215976D01*
X0227046Y0207976D01*
X0226300Y0206175D01*
X0226300Y0196225D01*
X0227046Y0194424D01*
X0228424Y0193046D01*
X0228424Y0193046D01*
X0267424Y0154046D01*
X0264954Y0156517D02*
X0201813Y0156517D01*
X0199414Y0158915D02*
X0262555Y0158915D01*
X0260157Y0161314D02*
X0197016Y0161314D01*
X0194617Y0163712D02*
X0257758Y0163712D01*
X0255360Y0166111D02*
X0194100Y0166111D01*
X0194100Y0168509D02*
X0252961Y0168509D01*
X0250563Y0170908D02*
X0194100Y0170908D01*
X0194100Y0173306D02*
X0248164Y0173306D01*
X0245766Y0175705D02*
X0194100Y0175705D01*
X0194100Y0178103D02*
X0243367Y0178103D01*
X0240969Y0180502D02*
X0194100Y0180502D01*
X0194100Y0182900D02*
X0238570Y0182900D01*
X0236172Y0185299D02*
X0194100Y0185299D01*
X0194100Y0187697D02*
X0233773Y0187697D01*
X0231375Y0190096D02*
X0194100Y0190096D01*
X0194100Y0192494D02*
X0202811Y0192494D01*
X0203109Y0192322D02*
X0205804Y0191600D01*
X0208596Y0191600D01*
X0211291Y0192322D01*
X0213709Y0193718D01*
X0215682Y0195691D01*
X0217078Y0198109D01*
X0217800Y0200804D01*
X0217800Y0203596D01*
X0217078Y0206291D01*
X0215682Y0208709D01*
X0213709Y0210682D01*
X0211291Y0212078D01*
X0208596Y0212800D01*
X0205804Y0212800D01*
X0203109Y0212078D01*
X0200691Y0210682D01*
X0198718Y0208709D01*
X0197322Y0206291D01*
X0196600Y0203596D01*
X0196600Y0200804D01*
X0197322Y0198109D01*
X0198718Y0195691D01*
X0200691Y0193718D01*
X0203109Y0192322D01*
X0199517Y0194893D02*
X0194100Y0194893D01*
X0194100Y0197291D02*
X0197794Y0197291D01*
X0196899Y0199690D02*
X0194100Y0199690D01*
X0194100Y0202088D02*
X0196600Y0202088D01*
X0196839Y0204487D02*
X0194100Y0204487D01*
X0194815Y0206885D02*
X0197665Y0206885D01*
X0197214Y0209284D02*
X0199293Y0209284D01*
X0199612Y0211682D02*
X0202424Y0211682D01*
X0202011Y0214081D02*
X0233151Y0214081D01*
X0230753Y0211682D02*
X0211976Y0211682D01*
X0215107Y0209284D02*
X0228354Y0209284D01*
X0226594Y0206885D02*
X0216735Y0206885D01*
X0217561Y0204487D02*
X0226300Y0204487D01*
X0226300Y0202088D02*
X0217800Y0202088D01*
X0217501Y0199690D02*
X0226300Y0199690D01*
X0226300Y0197291D02*
X0216606Y0197291D01*
X0214883Y0194893D02*
X0226852Y0194893D01*
X0228976Y0192494D02*
X0211589Y0192494D01*
X0204409Y0216479D02*
X0235550Y0216479D01*
X0218800Y0230870D02*
X0268052Y0230870D01*
X0268295Y0231204D02*
X0267712Y0230402D01*
X0267262Y0229518D01*
X0266955Y0228575D01*
X0266800Y0227596D01*
X0266800Y0227200D01*
X0277100Y0227200D01*
X0277100Y0233400D01*
X0272604Y0233400D01*
X0271625Y0233245D01*
X0270682Y0232938D01*
X0269798Y0232488D01*
X0268996Y0231905D01*
X0268295Y0231204D01*
X0266939Y0228472D02*
X0216402Y0228472D01*
X0214003Y0226073D02*
X0266884Y0226073D01*
X0266955Y0225625D02*
X0267262Y0224682D01*
X0267712Y0223798D01*
X0268295Y0222996D01*
X0268996Y0222295D01*
X0269798Y0221712D01*
X0270682Y0221262D01*
X0271625Y0220955D01*
X0272604Y0220800D01*
X0277100Y0220800D01*
X0277100Y0227000D01*
X0277300Y0227000D01*
X0277300Y0227200D01*
X0277100Y0227200D01*
X0277100Y0227000D01*
X0266800Y0227000D01*
X0266800Y0226604D01*
X0266955Y0225625D01*
X0267801Y0223675D02*
X0211605Y0223675D01*
X0209206Y0221276D02*
X0270652Y0221276D01*
X0277100Y0221276D02*
X0277300Y0221276D01*
X0277300Y0220800D02*
X0281796Y0220800D01*
X0282775Y0220955D01*
X0283718Y0221262D01*
X0284602Y0221712D01*
X0285404Y0222295D01*
X0286105Y0222996D01*
X0286688Y0223798D01*
X0287138Y0224682D01*
X0287445Y0225625D01*
X0287600Y0226604D01*
X0287600Y0227000D01*
X0277300Y0227000D01*
X0277300Y0220800D01*
X0277300Y0223675D02*
X0277100Y0223675D01*
X0277100Y0226073D02*
X0277300Y0226073D01*
X0277300Y0227200D02*
X0287600Y0227200D01*
X0287600Y0227596D01*
X0287445Y0228575D01*
X0287138Y0229518D01*
X0286688Y0230402D01*
X0286105Y0231204D01*
X0285404Y0231905D01*
X0284602Y0232488D01*
X0283718Y0232938D01*
X0282775Y0233245D01*
X0281796Y0233400D01*
X0277300Y0233400D01*
X0277300Y0227200D01*
X0277300Y0228472D02*
X0277100Y0228472D01*
X0277100Y0230870D02*
X0277300Y0230870D01*
X0277300Y0233269D02*
X0277100Y0233269D01*
X0271777Y0233269D02*
X0221199Y0233269D01*
X0223597Y0235668D02*
X0291921Y0235668D01*
X0291921Y0238066D02*
X0225996Y0238066D01*
X0228394Y0240465D02*
X0291921Y0240465D01*
X0291921Y0242863D02*
X0230793Y0242863D01*
X0232100Y0245262D02*
X0291921Y0245262D01*
X0291921Y0247660D02*
X0247497Y0247660D01*
X0248600Y0248117D02*
X0251033Y0250550D01*
X0252350Y0253729D01*
X0252350Y0265671D01*
X0251033Y0268850D01*
X0248600Y0271283D01*
X0245421Y0272600D01*
X0241979Y0272600D01*
X0238800Y0271283D01*
X0236367Y0268850D01*
X0235050Y0265671D01*
X0235050Y0253729D01*
X0236367Y0250550D01*
X0238800Y0248117D01*
X0241979Y0246800D01*
X0245421Y0246800D01*
X0248600Y0248117D01*
X0250542Y0250059D02*
X0291921Y0250059D01*
X0291921Y0252457D02*
X0251823Y0252457D01*
X0252350Y0254856D02*
X0270957Y0254856D01*
X0265976Y0257254D02*
X0252350Y0257254D01*
X0252350Y0259653D02*
X0263167Y0259653D01*
X0265436Y0257534D02*
X0265436Y0257534D01*
X0260934Y0262051D02*
X0252350Y0262051D01*
X0252350Y0264450D02*
X0259476Y0264450D01*
X0258272Y0266848D02*
X0251862Y0266848D01*
X0250636Y0269247D02*
X0257600Y0269247D01*
X0256990Y0271645D02*
X0247726Y0271645D01*
X0239674Y0271645D02*
X0228684Y0271645D01*
X0231083Y0269247D02*
X0236764Y0269247D01*
X0235538Y0266848D02*
X0232100Y0266848D01*
X0232100Y0264450D02*
X0235050Y0264450D01*
X0235050Y0262051D02*
X0232100Y0262051D01*
X0232100Y0259653D02*
X0235050Y0259653D01*
X0235050Y0257254D02*
X0232100Y0257254D01*
X0232100Y0254856D02*
X0235050Y0254856D01*
X0235577Y0252457D02*
X0232100Y0252457D01*
X0232100Y0250059D02*
X0236858Y0250059D01*
X0239903Y0247660D02*
X0232100Y0247660D01*
X0212300Y0257254D02*
X0209350Y0257254D01*
X0209350Y0254856D02*
X0210926Y0254856D01*
X0212300Y0259653D02*
X0209350Y0259653D01*
X0209350Y0262051D02*
X0212300Y0262051D01*
X0212300Y0264450D02*
X0209350Y0264450D01*
X0208862Y0266848D02*
X0212300Y0266848D01*
X0213317Y0269247D02*
X0207636Y0269247D01*
X0204726Y0271645D02*
X0215716Y0271645D01*
X0196674Y0271645D02*
X0106226Y0271645D01*
X0109136Y0269247D02*
X0120007Y0269247D01*
X0120109Y0269324D02*
X0119438Y0268810D01*
X0118840Y0268212D01*
X0118326Y0267541D01*
X0117903Y0266809D01*
X0117579Y0266028D01*
X0117360Y0265211D01*
X0117250Y0264373D01*
X0117250Y0259875D01*
X0123525Y0259875D01*
X0123525Y0270400D01*
X0123277Y0270400D01*
X0122439Y0270290D01*
X0121622Y0270071D01*
X0120841Y0269747D01*
X0120109Y0269324D01*
X0117925Y0266848D02*
X0110362Y0266848D01*
X0110850Y0264450D02*
X0117260Y0264450D01*
X0117250Y0262051D02*
X0110850Y0262051D01*
X0110850Y0259653D02*
X0123525Y0259653D01*
X0123525Y0259525D02*
X0117250Y0259525D01*
X0117250Y0255027D01*
X0117360Y0254189D01*
X0117579Y0253372D01*
X0117903Y0252591D01*
X0118326Y0251859D01*
X0118840Y0251188D01*
X0119438Y0250590D01*
X0120109Y0250076D01*
X0120841Y0249653D01*
X0121622Y0249329D01*
X0122439Y0249110D01*
X0123277Y0249000D01*
X0123525Y0249000D01*
X0123525Y0259525D01*
X0123875Y0259525D01*
X0123875Y0259875D01*
X0130150Y0259875D01*
X0130150Y0264373D01*
X0130040Y0265211D01*
X0129821Y0266028D01*
X0129497Y0266809D01*
X0129074Y0267541D01*
X0128560Y0268212D01*
X0127962Y0268810D01*
X0127291Y0269324D01*
X0126559Y0269747D01*
X0125778Y0270071D01*
X0124961Y0270290D01*
X0124123Y0270400D01*
X0123875Y0270400D01*
X0123875Y0259875D01*
X0123525Y0259875D01*
X0123525Y0259525D01*
X0123875Y0259525D02*
X0123875Y0249000D01*
X0124123Y0249000D01*
X0124961Y0249110D01*
X0125778Y0249329D01*
X0126559Y0249653D01*
X0127291Y0250076D01*
X0127962Y0250590D01*
X0128560Y0251188D01*
X0129074Y0251859D01*
X0129497Y0252591D01*
X0129821Y0253372D01*
X0130040Y0254189D01*
X0130150Y0255027D01*
X0130150Y0259525D01*
X0123875Y0259525D01*
X0123875Y0259653D02*
X0192050Y0259653D01*
X0192050Y0262051D02*
X0130150Y0262051D01*
X0130140Y0264450D02*
X0192050Y0264450D01*
X0192538Y0266848D02*
X0129475Y0266848D01*
X0127393Y0269247D02*
X0193764Y0269247D01*
X0192050Y0257254D02*
X0130150Y0257254D01*
X0130127Y0254856D02*
X0192050Y0254856D01*
X0192577Y0252457D02*
X0129420Y0252457D01*
X0127262Y0250059D02*
X0193858Y0250059D01*
X0196903Y0247660D02*
X0105997Y0247660D01*
X0109042Y0250059D02*
X0120138Y0250059D01*
X0117980Y0252457D02*
X0110323Y0252457D01*
X0110850Y0254856D02*
X0117273Y0254856D01*
X0117250Y0257254D02*
X0110850Y0257254D01*
X0123525Y0257254D02*
X0123875Y0257254D01*
X0123875Y0254856D02*
X0123525Y0254856D01*
X0123525Y0252457D02*
X0123875Y0252457D01*
X0123875Y0250059D02*
X0123525Y0250059D01*
X0121068Y0245262D02*
X0201332Y0245262D01*
X0206808Y0218878D02*
X0291921Y0218878D01*
X0291921Y0221276D02*
X0283748Y0221276D01*
X0286599Y0223675D02*
X0291921Y0223675D01*
X0291921Y0226073D02*
X0287516Y0226073D01*
X0287461Y0228472D02*
X0291921Y0228472D01*
X0291921Y0230870D02*
X0286348Y0230870D01*
X0282623Y0233269D02*
X0291921Y0233269D01*
X0291921Y0216479D02*
X0285850Y0216479D01*
X0288249Y0214081D02*
X0291921Y0214081D01*
X0291921Y0211682D02*
X0290475Y0211682D01*
X0291100Y0209284D02*
X0291921Y0209284D01*
X0291921Y0206885D02*
X0291100Y0206885D01*
X0291100Y0204487D02*
X0291921Y0204487D01*
X0291921Y0202088D02*
X0291100Y0202088D01*
X0291100Y0199690D02*
X0291921Y0199690D01*
X0291921Y0197291D02*
X0291100Y0197291D01*
X0291100Y0194893D02*
X0291921Y0194893D01*
X0291921Y0192494D02*
X0291100Y0192494D01*
X0291100Y0190096D02*
X0291921Y0190096D01*
X0291921Y0187697D02*
X0291100Y0187697D01*
X0291100Y0185299D02*
X0291921Y0185299D01*
X0291921Y0182900D02*
X0291100Y0182900D01*
X0291100Y0180502D02*
X0291921Y0180502D01*
X0291921Y0178103D02*
X0291100Y0178103D01*
X0291100Y0175705D02*
X0291921Y0175705D01*
X0291921Y0173306D02*
X0291100Y0173306D01*
X0291100Y0170908D02*
X0291921Y0170908D01*
X0291921Y0168509D02*
X0291100Y0168509D01*
X0291100Y0166111D02*
X0291921Y0166111D01*
X0291921Y0163712D02*
X0290473Y0163712D01*
X0291921Y0161314D02*
X0288243Y0161314D01*
X0285845Y0158915D02*
X0291921Y0158915D01*
X0291921Y0156517D02*
X0283446Y0156517D01*
X0281048Y0154118D02*
X0291921Y0154118D01*
X0277200Y0115742D02*
X0277200Y0115742D01*
X0277200Y0113343D02*
X0277200Y0113343D01*
X0277200Y0110945D02*
X0277200Y0110945D01*
X0277200Y0108546D02*
X0277200Y0108546D01*
X0267500Y0099395D02*
X0264395Y0102500D01*
X0262200Y0102500D01*
X0262200Y0097200D01*
X0262200Y0097200D01*
X0267500Y0097200D01*
X0267500Y0099395D01*
X0267500Y0098952D02*
X0291921Y0098952D01*
X0291921Y0096554D02*
X0267500Y0096554D01*
X0267500Y0097200D02*
X0262200Y0097200D01*
X0262200Y0097200D01*
X0262200Y0097200D01*
X0256900Y0097200D01*
X0256900Y0099395D01*
X0260005Y0102500D01*
X0262200Y0102500D01*
X0262200Y0097200D01*
X0262200Y0091900D01*
X0264395Y0091900D01*
X0267500Y0095005D01*
X0267500Y0097200D01*
X0266651Y0094155D02*
X0291921Y0094155D01*
X0291921Y0091757D02*
X0240573Y0091757D01*
X0238174Y0094155D02*
X0257749Y0094155D01*
X0256900Y0095005D02*
X0260005Y0091900D01*
X0262200Y0091900D01*
X0262200Y0097200D01*
X0262200Y0097200D01*
X0256900Y0097200D01*
X0256900Y0095005D01*
X0256900Y0096554D02*
X0235776Y0096554D01*
X0234100Y0098952D02*
X0256900Y0098952D01*
X0258856Y0101351D02*
X0234100Y0101351D01*
X0234100Y0103749D02*
X0291921Y0103749D01*
X0291921Y0101351D02*
X0265544Y0101351D01*
X0262200Y0101351D02*
X0262200Y0101351D01*
X0262200Y0098952D02*
X0262200Y0098952D01*
X0262200Y0096554D02*
X0262200Y0096554D01*
X0262200Y0094155D02*
X0262200Y0094155D01*
X0261971Y0089358D02*
X0291921Y0089358D01*
X0291921Y0086960D02*
X0264370Y0086960D01*
X0265940Y0084561D02*
X0291921Y0084561D01*
X0291921Y0082163D02*
X0266100Y0082163D01*
X0266100Y0079764D02*
X0291921Y0079764D01*
X0291921Y0077366D02*
X0265744Y0077366D01*
X0263897Y0074967D02*
X0291921Y0074967D01*
X0291921Y0072569D02*
X0261498Y0072569D01*
X0259395Y0067500D02*
X0257200Y0067500D01*
X0257200Y0062200D01*
X0257200Y0062200D01*
X0262500Y0062200D01*
X0262500Y0064395D01*
X0259395Y0067500D01*
X0257200Y0067500D02*
X0255005Y0067500D01*
X0251900Y0064395D01*
X0251900Y0062200D01*
X0257200Y0062200D01*
X0257200Y0062200D01*
X0257200Y0062200D01*
X0257200Y0067500D01*
X0257200Y0065373D02*
X0257200Y0065373D01*
X0257200Y0062975D02*
X0257200Y0062975D01*
X0257200Y0062200D02*
X0251900Y0062200D01*
X0251900Y0060005D01*
X0255005Y0056900D01*
X0257200Y0056900D01*
X0259395Y0056900D01*
X0262500Y0060005D01*
X0262500Y0062200D01*
X0257200Y0062200D01*
X0257200Y0056900D01*
X0257200Y0062200D01*
X0257200Y0062200D01*
X0257200Y0060576D02*
X0257200Y0060576D01*
X0257200Y0058178D02*
X0257200Y0058178D01*
X0260673Y0058178D02*
X0264699Y0058178D01*
X0262500Y0060576D02*
X0268736Y0060576D01*
X0270368Y0061422D02*
X0270368Y0061422D01*
X0262500Y0062975D02*
X0291921Y0062975D01*
X0291921Y0065373D02*
X0261522Y0065373D01*
X0252878Y0065373D02*
X0228303Y0065373D01*
X0227100Y0062975D02*
X0251900Y0062975D01*
X0251900Y0060576D02*
X0227100Y0060576D01*
X0227100Y0058178D02*
X0253727Y0058178D01*
X0260346Y0053381D02*
X0243048Y0053381D01*
X0242938Y0053718D02*
X0242488Y0054602D01*
X0241905Y0055404D01*
X0241204Y0056105D01*
X0240402Y0056688D01*
X0239518Y0057138D01*
X0238575Y0057445D01*
X0237596Y0057600D01*
X0237200Y0057600D01*
X0237200Y0047300D01*
X0243400Y0047300D01*
X0243400Y0051796D01*
X0243245Y0052775D01*
X0242938Y0053718D01*
X0241530Y0055779D02*
X0262130Y0055779D01*
X0261375Y0055074D02*
X0261375Y0055074D01*
X0258887Y0050982D02*
X0243400Y0050982D01*
X0243400Y0048584D02*
X0258000Y0048584D01*
X0258489Y0050327D02*
X0258489Y0050327D01*
X0257328Y0046185D02*
X0243400Y0046185D01*
X0243400Y0047100D02*
X0237200Y0047100D01*
X0237200Y0047300D01*
X0237000Y0047300D01*
X0237000Y0057600D01*
X0236604Y0057600D01*
X0235625Y0057445D01*
X0234682Y0057138D01*
X0233798Y0056688D01*
X0232996Y0056105D01*
X0232295Y0055404D01*
X0231712Y0054602D01*
X0231262Y0053718D01*
X0230955Y0052775D01*
X0230800Y0051796D01*
X0230800Y0047300D01*
X0237000Y0047300D01*
X0237000Y0047100D01*
X0237200Y0047100D01*
X0237200Y0036800D01*
X0237596Y0036800D01*
X0238575Y0036955D01*
X0239518Y0037262D01*
X0240402Y0037712D01*
X0241204Y0038295D01*
X0241905Y0038996D01*
X0242488Y0039798D01*
X0242938Y0040682D01*
X0243245Y0041625D01*
X0243400Y0042604D01*
X0243400Y0047100D01*
X0243400Y0043787D02*
X0256990Y0043787D01*
X0256990Y0041388D02*
X0243168Y0041388D01*
X0241899Y0038990D02*
X0257111Y0038990D01*
X0257783Y0036591D02*
X0224521Y0036591D01*
X0226588Y0038990D02*
X0232301Y0038990D01*
X0232295Y0038996D02*
X0232996Y0038295D01*
X0233798Y0037712D01*
X0234682Y0037262D01*
X0235625Y0036955D01*
X0236604Y0036800D01*
X0237000Y0036800D01*
X0237000Y0047100D01*
X0230800Y0047100D01*
X0230800Y0042604D01*
X0230955Y0041625D01*
X0231262Y0040682D01*
X0231712Y0039798D01*
X0232295Y0038996D01*
X0231032Y0041388D02*
X0227100Y0041388D01*
X0227100Y0043787D02*
X0230800Y0043787D01*
X0230800Y0046185D02*
X0227100Y0046185D01*
X0227100Y0048584D02*
X0230800Y0048584D01*
X0230800Y0050982D02*
X0227100Y0050982D01*
X0227100Y0053381D02*
X0231152Y0053381D01*
X0232670Y0055779D02*
X0227100Y0055779D01*
X0237000Y0055779D02*
X0237200Y0055779D01*
X0237200Y0053381D02*
X0237000Y0053381D01*
X0237000Y0050982D02*
X0237200Y0050982D01*
X0237200Y0048584D02*
X0237000Y0048584D01*
X0237000Y0046185D02*
X0237200Y0046185D01*
X0237200Y0043787D02*
X0237000Y0043787D01*
X0237000Y0041388D02*
X0237200Y0041388D01*
X0237200Y0038990D02*
X0237000Y0038990D01*
X0222122Y0034193D02*
X0258455Y0034193D01*
X0259875Y0031794D02*
X0064714Y0031794D01*
X0065756Y0034193D02*
X0212278Y0034193D01*
X0209879Y0036591D02*
X0092812Y0036591D01*
X0081788Y0036591D02*
X0066798Y0036591D01*
X0066844Y0036696D02*
X0066844Y0036696D01*
X0067159Y0038990D02*
X0079802Y0038990D01*
X0078647Y0041388D02*
X0067488Y0041388D01*
X0067382Y0043787D02*
X0078300Y0043787D01*
X0078300Y0046185D02*
X0067052Y0046185D01*
X0066844Y0047704D02*
X0066844Y0047704D01*
X0066461Y0048584D02*
X0078300Y0048584D01*
X0078300Y0050982D02*
X0065420Y0050982D01*
X0064157Y0053381D02*
X0078300Y0053381D01*
X0078300Y0055779D02*
X0062206Y0055779D01*
X0061124Y0057109D02*
X0061124Y0057109D01*
X0061124Y0057109D01*
X0059610Y0058178D02*
X0078715Y0058178D01*
X0080647Y0060576D02*
X0055844Y0060576D01*
X0056585Y0060313D02*
X0056585Y0060313D01*
X0062836Y0029396D02*
X0261333Y0029396D01*
X0285844Y0060576D02*
X0291921Y0060576D01*
X0291921Y0058178D02*
X0289610Y0058178D01*
X0291124Y0057109D02*
X0291124Y0057109D01*
X0291124Y0057109D01*
X0286585Y0060313D02*
X0286585Y0060313D01*
X0291921Y0067772D02*
X0230701Y0067772D01*
X0233100Y0070170D02*
X0291921Y0070170D01*
X0207812Y0038990D02*
X0146485Y0038990D01*
X0168018Y0048584D02*
X0113400Y0048584D01*
X0091916Y0096554D02*
X0052160Y0096554D01*
X0054559Y0098952D02*
X0089518Y0098952D01*
X0088300Y0101351D02*
X0054700Y0101351D01*
X0054700Y0103749D02*
X0088300Y0103749D01*
X0088300Y0106148D02*
X0053859Y0106148D01*
X0051460Y0108546D02*
X0088300Y0108546D01*
X0116798Y0132532D02*
X0117853Y0132532D01*
X0092480Y0161314D02*
X0032400Y0161314D01*
X0032400Y0163712D02*
X0090081Y0163712D01*
X0089700Y0166111D02*
X0032400Y0166111D01*
X0032400Y0168509D02*
X0089700Y0168509D01*
X0090301Y0170908D02*
X0032400Y0170908D01*
X0032400Y0173306D02*
X0092700Y0173306D01*
X0058153Y0144524D02*
X0032400Y0144524D01*
X0032400Y0142126D02*
X0054448Y0142126D01*
X0053075Y0139727D02*
X0032400Y0139727D01*
X0032400Y0137329D02*
X0052650Y0137329D01*
X0052968Y0134930D02*
X0032400Y0134930D01*
X0032400Y0132532D02*
X0054191Y0132532D01*
X0136100Y0223675D02*
X0173230Y0223675D01*
X0171900Y0226073D02*
X0136100Y0226073D01*
X0136100Y0228472D02*
X0171900Y0228472D01*
X0173375Y0230870D02*
X0135398Y0230870D01*
X0155926Y0214081D02*
X0163474Y0214081D01*
X0161076Y0211682D02*
X0158324Y0211682D01*
X0159700Y0209284D02*
X0159700Y0209284D01*
X0159700Y0206885D02*
X0159700Y0206885D01*
X0159700Y0204487D02*
X0159700Y0204487D01*
X0157695Y0202088D02*
X0161705Y0202088D01*
X0170926Y0214081D02*
X0172300Y0214081D01*
X0177200Y0230870D02*
X0177200Y0230870D01*
X0123875Y0262051D02*
X0123525Y0262051D01*
X0123525Y0264450D02*
X0123875Y0264450D01*
X0123875Y0266848D02*
X0123525Y0266848D01*
X0123525Y0269247D02*
X0123875Y0269247D01*
X0098174Y0271645D02*
X0084726Y0271645D01*
X0087636Y0269247D02*
X0095264Y0269247D01*
X0094038Y0266848D02*
X0088862Y0266848D01*
X0089350Y0264450D02*
X0093550Y0264450D01*
X0093550Y0262051D02*
X0089350Y0262051D01*
X0089350Y0259653D02*
X0093550Y0259653D01*
X0093550Y0257254D02*
X0089350Y0257254D01*
X0089350Y0254856D02*
X0093550Y0254856D01*
X0094077Y0252457D02*
X0089100Y0252457D01*
X0089100Y0250059D02*
X0095358Y0250059D01*
X0098403Y0247660D02*
X0089100Y0247660D01*
X0077404Y0238066D02*
X0032400Y0238066D01*
X0032400Y0235668D02*
X0079803Y0235668D01*
X0082201Y0233269D02*
X0032400Y0233269D01*
X0032400Y0240465D02*
X0075006Y0240465D01*
X0072864Y0242863D02*
X0032400Y0242863D01*
X0032400Y0245262D02*
X0072300Y0245262D01*
X0072300Y0247660D02*
X0032400Y0247660D01*
X0032400Y0250059D02*
X0072300Y0250059D01*
X0072300Y0252457D02*
X0032400Y0252457D01*
X0032400Y0254856D02*
X0040957Y0254856D01*
X0035976Y0257254D02*
X0032400Y0257254D01*
X0032400Y0259653D02*
X0033167Y0259653D01*
X0035436Y0257534D02*
X0035436Y0257534D01*
X0045808Y0253848D02*
X0045808Y0253848D01*
X0053120Y0254856D02*
X0072050Y0254856D01*
X0072050Y0257254D02*
X0058239Y0257254D01*
X0061124Y0259291D02*
X0061124Y0259291D01*
X0061124Y0259291D01*
X0061418Y0259653D02*
X0072050Y0259653D01*
X0072050Y0262051D02*
X0063370Y0262051D01*
X0064999Y0264450D02*
X0072050Y0264450D01*
X0072538Y0266848D02*
X0066041Y0266848D01*
X0066844Y0268696D02*
X0066844Y0268696D01*
X0066919Y0269247D02*
X0073764Y0269247D01*
X0076674Y0271645D02*
X0067249Y0271645D01*
X0067578Y0274044D02*
X0256990Y0274044D01*
X0256990Y0276442D02*
X0067292Y0276442D01*
X0066962Y0278841D02*
X0257512Y0278841D01*
X0258184Y0281239D02*
X0066177Y0281239D01*
X0066844Y0279704D02*
X0066844Y0279704D01*
X0065135Y0283638D02*
X0259286Y0283638D01*
X0258489Y0282327D02*
X0258489Y0282327D01*
X0260744Y0286036D02*
X0063624Y0286036D01*
X0261375Y0287074D02*
X0261375Y0287074D01*
X0288239Y0257254D02*
X0291921Y0257254D01*
X0291124Y0259291D02*
X0291124Y0259291D01*
X0291124Y0259291D01*
X0291418Y0259653D02*
X0291921Y0259653D01*
X0291921Y0254856D02*
X0283120Y0254856D01*
X0275808Y0253848D02*
X0275808Y0253848D01*
M02*
